<svg width="41" height="41" viewBox="0 0 41 41" fill="none" xmlns="http://www.w3.org/2000/svg">
<path fill-rule="evenodd" clip-rule="evenodd" d="M15.4035 8.54167C12.6421 8.54167 10.4035 10.8362 10.4035 13.6667C10.4035 16.4971 12.6421 18.7917 15.4035 18.7917C18.165 18.7917 20.4035 16.4971 20.4035 13.6667C20.4035 10.8362 18.165 8.54167 15.4035 8.54167ZM7.07015 13.6667C7.07015 8.94924 10.8011 5.125 15.4035 5.125C20.0058 5.125 23.7368 8.94924 23.7368 13.6667C23.7368 18.3841 20.0058 22.2083 15.4035 22.2083C10.8011 22.2083 7.07015 18.3841 7.07015 13.6667ZM36.582 15.8754C37.2328 16.5425 37.2328 17.6242 36.582 18.2913L29.9153 25.1246C29.2645 25.7917 28.2092 25.7917 27.5583 25.1246L24.225 21.708C23.5742 21.0409 23.5742 19.9591 24.225 19.292C24.8758 18.6249 25.9312 18.6249 26.582 19.292L28.7368 21.5007L34.225 15.8754C34.8758 15.2082 35.9312 15.2082 36.582 15.8754ZM7.40792 26.205C9.52718 24.7568 12.3589 23.9167 15.4035 23.9167C18.448 23.9167 21.2798 24.7568 23.399 26.205C25.5067 27.6453 27.0702 29.8224 27.0702 32.4583C27.0702 33.4018 26.324 34.1667 25.4035 34.1667C24.483 34.1667 23.7368 33.4018 23.7368 32.4583C23.7368 31.3202 23.0616 30.0808 21.55 29.0478C20.05 28.0228 17.8818 27.3333 15.4035 27.3333C12.9252 27.3333 10.7569 28.0228 9.25692 29.0478C7.74525 30.0808 7.07015 31.3202 7.07015 32.4583C7.07015 33.4018 6.32395 34.1667 5.40348 34.1667C4.48302 34.1667 3.73682 33.4018 3.73682 32.4583C3.73682 29.8224 5.3003 27.6453 7.40792 26.205Z" fill="#36DB00"/>
</svg>
