<svg width="44" height="45" viewBox="0 0 44 45" fill="none" xmlns="http://www.w3.org/2000/svg">
<path d="M16.4821 5.9836C16.4391 5.95481 10.9808 3.14447 10.9808 3.14447C10.6028 2.95111 10.1567 2.95111 9.77873 3.14447C9.77873 3.14447 4.3204 5.95481 4.27734 5.9836L10.3797 9.10571L16.4821 5.9836Z" fill="#37DD00"/>
<path d="M3.66016 13.9995C3.66016 14.5204 3.94754 14.9965 4.40289 15.2294L9.70703 18.1245V10.2994L3.66016 7.20569V13.9995Z" fill="#37DD00"/>
<path d="M11.0508 18.1245L16.3549 15.2294C16.8103 14.9965 17.0977 14.5204 17.0977 13.9995V7.20569L11.0508 10.2994V18.1245Z" fill="#37DD00"/>
<path d="M35.1683 3.14447C34.7903 2.95111 34.3442 2.95111 33.9662 3.14447C33.9662 3.14447 28.5079 5.95481 28.4648 5.9836L34.5672 9.10571L40.6696 5.9836C40.6266 5.95481 35.1683 3.14447 35.1683 3.14447Z" fill="#37DD00"/>
<path d="M28.5904 15.2294L33.8945 18.1245V10.2994L27.8477 7.20569V13.9995C27.8477 14.5204 28.135 14.9965 28.5904 15.2294Z" fill="#37DD00"/>
<path d="M35.2383 10.2994V18.1245L40.5424 15.2294C40.9978 14.9965 41.2852 14.5204 41.2852 13.9995V7.20569L35.2383 10.2994Z" fill="#37DD00"/>
<path d="M22.4727 16.7495C15.8038 16.7495 10.3789 22.3005 10.3789 29.1245C10.3789 35.9484 15.8038 41.4995 22.4727 41.4995C29.1415 41.4995 34.5664 35.9484 34.5664 29.1245C34.5664 22.3005 29.1415 16.7495 22.4727 16.7495ZM30.5352 31.8743C30.5352 32.9216 29.9669 33.8643 29.051 34.3329L22.4725 37.9247L15.8641 34.3181C14.979 33.8643 14.4102 32.9216 14.4102 31.8743V24.087C14.4102 23.5623 14.7021 23.0832 15.1626 22.8523L21.2706 19.7893C21.642 19.6 22.0573 19.4993 22.4727 19.4993C22.888 19.4993 23.3033 19.6 23.6747 19.7893L29.7864 22.8774C30.2449 23.1091 30.5352 23.587 30.5352 24.1103V31.8743Z" fill="#37DD00"/>
<path d="M23.0745 21.0195C22.6966 20.8261 22.2504 20.8261 21.8725 21.0195C21.8725 21.0195 16.4142 23.8298 16.3711 23.8586L22.4735 26.9807L28.5759 23.8586C28.5328 23.8298 23.0745 21.0195 23.0745 21.0195Z" fill="#37DD00"/>
<path d="M15.7539 31.8745C15.7539 32.3954 16.0413 32.8715 16.4966 33.1044L21.8008 35.9995V28.1744L15.7539 25.0807V31.8745Z" fill="#37DD00"/>
<path d="M23.1445 35.9995L28.4487 33.1044C28.904 32.8715 29.1914 32.3954 29.1914 31.8745V25.0807L23.1445 28.1744V35.9995Z" fill="#37DD00"/>
</svg>
