<svg width="42" height="42" viewBox="0 0 42 42" fill="none" xmlns="http://www.w3.org/2000/svg">
<g clip-path="url(#clip0_58_5884)">
<path d="M32.8717 3.55735C32.6866 3.55735 32.5016 3.57449 32.3177 3.59046V0.756757C32.3177 0.338767 31.9789 0 31.561 0H10.4859C10.0679 0 9.72912 0.338767 9.72912 0.756757V3.58573C9.54702 3.56976 9.3602 3.55794 9.17515 3.55794C5.73782 3.55794 2.95142 6.34434 2.95142 9.78167C2.95142 13.219 5.73782 16.0048 9.17515 16.0048C9.3602 16.0048 9.54466 15.9883 9.72912 15.9717V16.0356C9.72202 18.8515 11.5447 21.3465 14.23 22.196C16.2881 22.8452 17.6863 24.7566 17.681 26.9145V31.785H16.0593C15.6413 31.785 15.3025 32.1237 15.3025 32.5417V38.0507C15.3025 38.4687 15.6413 38.8074 16.0593 38.8074C16.4773 38.8074 16.816 38.4687 16.816 38.0507V33.2985H25.2308V40.4865H12.2554C11.8374 40.4865 11.4986 40.8253 11.4986 41.2432C11.4986 41.6612 11.8374 42 12.2554 42H29.7914C30.2094 42 30.5482 41.6612 30.5482 41.2432C30.5482 40.8253 30.2094 40.4865 29.7914 40.4865H26.7449V32.5417C26.7449 32.1237 26.4061 31.785 25.9882 31.785H19.1921V26.9151C19.1992 24.0986 17.3765 21.6036 14.6906 20.7546C12.6326 20.1049 11.2355 18.1941 11.2403 16.0361V1.51351H30.8042V8.91554C30.8042 9.33353 31.143 9.6723 31.561 9.6723C31.9789 9.6723 32.3177 9.33353 32.3177 8.91554V5.1016C32.5016 5.07973 32.6866 5.06909 32.8717 5.0685C35.473 5.0685 37.5819 7.17736 37.5819 9.77872C37.5819 12.3801 35.473 14.4883 32.8717 14.4883C32.6866 14.4883 32.5016 14.4771 32.3177 14.4552V12.221C32.3177 11.8036 31.9789 11.4643 31.561 11.4643C31.143 11.4643 30.8042 11.8036 30.8042 12.221V16.0356C30.8089 18.1935 29.4113 20.1043 27.3533 20.7541C24.668 21.603 22.8452 24.098 22.8523 26.9145V29.2758C22.8523 29.6932 23.1911 30.0326 23.6091 30.0326C24.0271 30.0326 24.3659 29.6932 24.3659 29.2758V26.9145C24.3611 24.7566 25.7588 22.8452 27.8168 22.1954C30.5021 21.3465 32.3248 18.8515 32.3177 16.0356V15.9711C32.4992 15.9877 32.686 16.0042 32.8717 16.0042C36.309 16.0042 39.0954 13.2178 39.0954 9.78108C39.0954 6.34375 36.309 3.55735 32.8717 3.55735ZM9.17515 14.4907C7.41924 14.5019 5.80285 13.5347 4.98165 11.9828C4.16104 10.4302 4.27219 8.55017 5.26957 7.10465C6.26755 5.65971 7.98621 4.88995 9.72912 5.10693V14.4576C9.54525 14.4795 9.3602 14.4907 9.17515 14.4907Z" fill="#37DD00"/>
<path d="M17.0803 16.2125L17.0747 10.1876C17.087 10.1866 17.0131 9.75634 17.3029 9.54766C17.6161 9.32221 20.6442 7.55696 20.6442 7.55696C20.6442 7.55696 21.0413 7.31212 21.3826 7.53844C21.7239 7.76476 24.7497 9.5309 24.7497 9.5309C24.7497 9.5309 24.9667 9.65332 24.978 9.98725C24.9891 10.3212 24.9837 13.9111 24.9837 13.9111C24.9837 13.9111 25.0281 14.1838 24.7833 14.362C24.5384 14.5402 21.3046 16.4547 21.3046 16.4547C21.3046 16.4547 21.1153 16.5603 20.7034 16.4213C20.2915 16.2821 18.6441 15.2135 18.6441 15.2135V17.3397L20.798 18.5976C20.798 18.5976 21.0818 18.7089 21.3378 18.5475C21.5937 18.3861 26.4693 15.5476 26.4693 15.5476C26.4693 15.5476 26.8144 15.3862 26.82 14.9743C26.8256 14.5624 26.82 9.00787 26.82 9.00787C26.82 9.00787 26.8311 8.60161 26.5529 8.40669C26.2746 8.21194 21.3044 5.32883 21.3044 5.32883C21.3044 5.32883 21.0633 5.17483 20.7961 5.30467C20.5292 5.4345 15.5052 8.3954 15.5052 8.3954C15.5052 8.3954 15.2325 8.55116 15.2269 8.84064C15.2212 9.13011 15.2269 15.0445 15.2269 15.0445C15.2269 15.0445 15.2232 15.2894 15.4273 15.4379L17.0775 16.4294L17.0803 16.2125Z" fill="#37DD00"/>
<path d="M20.8 9.31071L18.8947 10.4369C18.8947 10.4369 18.6331 10.5538 18.6388 10.8932C18.6444 11.2326 18.6388 13.0545 18.6388 13.0545C18.6388 13.0545 18.6407 13.2919 18.8261 13.4255C19.0117 13.559 20.8 14.5869 20.8 14.5869C20.8 14.5869 20.954 14.7056 21.1823 14.6026C21.4106 14.4996 23.2083 13.4477 23.2083 13.4477C23.2083 13.4477 23.4235 13.3438 23.4235 13.0321V10.8541C23.4235 10.8541 23.442 10.65 23.2527 10.5127C23.0634 10.3755 21.2342 9.29572 21.2342 9.29572C21.2342 9.29572 20.9985 9.16765 20.8 9.31054V9.31071Z" fill="#37DD00"/>
<path opacity="0.3" d="M23.2451 10.5129C23.2397 10.5087 23.2326 10.5039 23.2242 10.4983C22.9495 10.3127 21.2266 9.29572 21.2266 9.29572C21.2266 9.29572 20.9909 9.16765 20.7925 9.31054L18.8871 10.4367C18.8871 10.4367 18.8372 10.4591 18.7813 10.5125C18.7691 10.5242 18.7568 10.5372 18.7446 10.5519C18.7446 10.5519 18.6248 10.6937 18.8307 10.817C19.0366 10.9403 21.0311 12.2009 21.0311 12.2009C21.0311 12.2009 23.2303 10.817 23.3083 10.7539C23.3083 10.7539 23.4321 10.6593 23.245 10.5127L23.2451 10.5129Z" fill="white"/>
<path opacity="0.3" d="M15.341 8.64112L17.1659 9.6235L20.6708 7.55007C20.6708 7.55007 21.094 7.27312 21.5161 7.61481C22.0039 7.90888 24.7757 9.55858 24.7757 9.55858L26.6671 8.5254C26.6671 8.5254 26.614 8.45166 26.5489 8.41021C26.4838 8.36875 21.3408 5.34258 21.3408 5.34258C21.3408 5.34258 21.0827 5.16777 20.8096 5.30536C20.5456 5.45266 15.4643 8.43314 15.4643 8.43314C15.4643 8.43314 15.2694 8.58485 15.341 8.64112Z" fill="white"/>
</g>
<defs>
<clipPath id="clip0_58_5884">
<rect width="42" height="42" fill="white"/>
</clipPath>
</defs>
</svg>
