<svg width="617" height="192" viewBox="0 0 617 192" fill="none" xmlns="http://www.w3.org/2000/svg">
<path d="M109.896 181.345H112.052V174.506C112.052 174.301 112.059 174.093 112.073 173.883L110.281 175.416C110.234 175.453 110.187 175.481 110.141 175.5C110.094 175.514 110.05 175.521 110.008 175.521C109.938 175.521 109.875 175.507 109.819 175.479C109.763 175.446 109.721 175.409 109.693 175.367L109.301 174.828L112.283 172.245H113.298V181.345H115.272V182.297H109.896V181.345ZM121.09 178.307V182.297H119.739V178.307L116.064 172.266H117.254C117.375 172.266 117.471 172.296 117.541 172.357C117.611 172.418 117.671 172.492 117.723 172.581L120.019 176.48C120.112 176.643 120.189 176.797 120.25 176.942C120.315 177.087 120.373 177.229 120.425 177.369C120.476 177.224 120.532 177.08 120.593 176.935C120.653 176.79 120.73 176.639 120.824 176.48L123.113 172.581C123.155 172.506 123.211 172.436 123.281 172.371C123.355 172.301 123.451 172.266 123.568 172.266H124.772L121.09 178.307Z" fill="white"/>
<rect x="328.543" y="167.797" width="49" height="23" rx="11.5" fill="#37DD00"/>
<rect x="328.543" y="167.797" width="49" height="23" rx="11.5" stroke="white"/>
<path d="M345.152 176.989C345.222 176.513 345.353 176.095 345.544 175.736C345.74 175.377 345.985 175.078 346.279 174.84C346.573 174.597 346.909 174.415 347.287 174.294C347.67 174.168 348.083 174.105 348.526 174.105C348.974 174.105 349.38 174.17 349.744 174.301C350.113 174.427 350.428 174.604 350.689 174.833C350.955 175.062 351.158 175.335 351.298 175.652C351.443 175.969 351.515 176.317 351.515 176.695C351.515 177.017 351.476 177.302 351.396 177.549C351.322 177.792 351.212 178.006 351.067 178.193C350.927 178.38 350.755 178.536 350.549 178.662C350.344 178.788 350.113 178.893 349.856 178.977C350.482 179.159 350.951 179.451 351.263 179.852C351.576 180.249 351.732 180.748 351.732 181.35C351.732 181.835 351.641 182.267 351.459 182.645C351.277 183.023 351.03 183.343 350.717 183.604C350.409 183.865 350.048 184.066 349.632 184.206C349.222 184.341 348.785 184.409 348.323 184.409C347.805 184.409 347.357 184.348 346.979 184.227C346.601 184.101 346.275 183.924 345.999 183.695C345.729 183.462 345.502 183.182 345.32 182.855C345.138 182.528 344.984 182.162 344.858 181.756L345.509 181.483C345.682 181.408 345.845 181.387 345.999 181.42C346.158 181.453 346.272 181.539 346.342 181.679C346.417 181.828 346.501 181.989 346.594 182.162C346.688 182.33 346.807 182.486 346.951 182.631C347.101 182.771 347.283 182.89 347.497 182.988C347.717 183.081 347.985 183.128 348.302 183.128C348.624 183.128 348.904 183.077 349.142 182.974C349.385 182.867 349.586 182.731 349.744 182.568C349.908 182.4 350.029 182.213 350.108 182.008C350.188 181.803 350.227 181.6 350.227 181.399C350.227 181.147 350.197 180.916 350.136 180.706C350.076 180.491 349.957 180.309 349.779 180.16C349.607 180.011 349.359 179.894 349.037 179.81C348.72 179.721 348.302 179.677 347.784 179.677V178.592C348.209 178.587 348.566 178.545 348.855 178.466C349.149 178.382 349.383 178.27 349.555 178.13C349.733 177.985 349.859 177.813 349.933 177.612C350.013 177.411 350.052 177.192 350.052 176.954C350.052 176.697 350.013 176.471 349.933 176.275C349.854 176.079 349.742 175.916 349.597 175.785C349.457 175.65 349.289 175.549 349.093 175.484C348.897 175.419 348.68 175.386 348.442 175.386C348.214 175.386 348.001 175.419 347.805 175.484C347.614 175.549 347.441 175.64 347.287 175.757C347.138 175.874 347.012 176.014 346.909 176.177C346.807 176.336 346.732 176.511 346.685 176.702C346.62 176.893 346.531 177.022 346.419 177.087C346.312 177.152 346.153 177.166 345.943 177.129L345.152 176.989ZM357.718 180.349V184.297H356.087V180.349L352.405 174.217H353.84C353.985 174.217 354.099 174.252 354.183 174.322C354.267 174.392 354.337 174.481 354.393 174.588L356.458 178.2C356.552 178.382 356.636 178.555 356.71 178.718C356.79 178.881 356.86 179.042 356.92 179.201C356.972 179.038 357.035 178.877 357.109 178.718C357.184 178.555 357.268 178.382 357.361 178.2L359.412 174.588C359.459 174.495 359.527 174.411 359.615 174.336C359.704 174.257 359.818 174.217 359.958 174.217H361.4L357.718 180.349Z" fill="black"/>
<path d="M590.225 172.812C590.225 172.989 590.169 173.136 590.057 173.253C589.945 173.365 589.756 173.421 589.49 173.421H586.34L585.878 176.053C586.401 175.941 586.884 175.885 587.327 175.885C587.85 175.885 588.309 175.962 588.706 176.116C589.107 176.27 589.443 176.482 589.714 176.753C589.985 177.024 590.188 177.343 590.323 177.712C590.463 178.081 590.533 178.482 590.533 178.916C590.533 179.448 590.44 179.929 590.253 180.358C590.066 180.787 589.81 181.156 589.483 181.464C589.161 181.767 588.781 182.001 588.342 182.164C587.903 182.327 587.43 182.409 586.921 182.409C586.627 182.409 586.345 182.379 586.074 182.318C585.803 182.262 585.551 182.185 585.318 182.087C585.085 181.989 584.868 181.877 584.667 181.751C584.466 181.625 584.289 181.492 584.135 181.352L584.513 180.82C584.597 180.699 584.709 180.638 584.849 180.638C584.938 180.638 585.04 180.675 585.157 180.75C585.278 180.82 585.423 180.899 585.591 180.988C585.759 181.077 585.955 181.158 586.179 181.233C586.408 181.303 586.678 181.338 586.991 181.338C587.341 181.338 587.656 181.282 587.936 181.17C588.216 181.058 588.454 180.899 588.65 180.694C588.851 180.484 589.005 180.234 589.112 179.945C589.219 179.656 589.273 179.331 589.273 178.972C589.273 178.659 589.226 178.377 589.133 178.125C589.044 177.873 588.907 177.658 588.72 177.481C588.538 177.304 588.309 177.166 588.034 177.068C587.759 176.97 587.437 176.921 587.068 176.921C586.816 176.921 586.555 176.942 586.284 176.984C586.013 177.026 585.733 177.094 585.444 177.187L584.66 176.956L585.472 172.266H590.225V172.812ZM596.582 178.307V182.297H595.231V178.307L591.556 172.266H592.746C592.867 172.266 592.963 172.296 593.033 172.357C593.103 172.418 593.164 172.492 593.215 172.581L595.511 176.48C595.604 176.643 595.681 176.797 595.742 176.942C595.807 177.087 595.866 177.229 595.917 177.369C595.968 177.224 596.024 177.08 596.085 176.935C596.146 176.79 596.223 176.639 596.316 176.48L598.605 172.581C598.647 172.506 598.703 172.436 598.773 172.371C598.848 172.301 598.943 172.266 599.06 172.266H600.264L596.582 178.307Z" fill="white"/>
<g clip-path="url(#clip0_590_1741)">
<g clip-path="url(#clip1_590_1741)">
<path d="M353.043 86.9707C234.043 113.991 116.632 132.724 3.04297 137.37H353.043V86.9707Z" fill="#77787B"/>
<path d="M357.266 87.9707C236.268 114.991 116.886 133.724 1.39062 138.37H357.266V87.9707Z" fill="#123009"/>
<path d="M589.043 8.57031V137.369L353.043 137.37V86.5052C435.023 66.8284 517.897 43.1942 589.043 8.57031Z" fill="#151615"/>
<path d="M471.043 55.2383V132.704" stroke="#DDE0E4" stroke-dasharray="4 4"/>
<path d="M589.043 8.57031V132.703" stroke="#DDE0E4" stroke-dasharray="4 4"/>
<path d="M6.54297 137.274H589.108" stroke="#DDE0E4" stroke-width="1.5"/>
<path d="M353.043 87.9036C353.043 87.9036 492.249 57.9176 589.543 10.4375M5.04297 138.238C76.9471 135.399 215.216 120.375 356.041 87.3379" stroke="#DDE0E4" stroke-width="3"/>
<path d="M235.734 109.729V137.272" stroke="#DDE0E4" stroke-dasharray="4 4"/>
<path d="M353.109 85.8379V137.838" stroke="#DDE0E4" stroke-dasharray="4 4"/>
<path d="M117.926 129.621V137.703" stroke="#DDE0E4" stroke-dasharray="4 4"/>
<path d="M475.078 55.0611L471.826 52.2597C471.465 51.9487 470.879 51.9487 470.518 52.2597L467.265 55.0611C466.904 55.3721 466.904 55.8764 467.265 56.1874L470.518 58.9888C470.879 59.2998 471.465 59.2998 471.826 58.9888L475.078 56.1874C475.44 55.8764 475.44 55.3721 475.078 55.0611Z" fill="white" stroke="#DDE0E4" stroke-width="1.72598"/>
<path d="M592.997 9.33399L589.666 6.51167C589.303 6.20353 588.713 6.20353 588.349 6.51167L585.019 9.33399C584.655 9.64212 584.655 10.1417 585.019 10.4499L588.349 13.2722C588.713 13.5803 589.303 13.5803 589.666 13.2722L592.997 10.4499C593.36 10.1417 593.36 9.64212 592.997 9.33399Z" fill="white" stroke="#DDE0E4" stroke-width="1.72598"/>
<path d="M474.767 136.927L471.93 134.483C471.511 134.123 470.833 134.123 470.414 134.483L467.577 136.927C467.158 137.287 467.158 137.872 467.577 138.232L470.414 140.676C470.833 141.036 471.511 141.036 471.93 140.676L474.767 138.232C475.185 137.872 475.185 137.287 474.767 136.927Z" fill="white" stroke="#DDE0E4" stroke-width="2"/>
<path d="M356.509 136.927L353.672 134.483C353.253 134.123 352.575 134.123 352.156 134.483L349.319 136.927C348.9 137.287 348.9 137.872 349.319 138.232L352.156 140.676C352.575 141.036 353.253 141.036 353.672 140.676L356.509 138.232C356.928 137.872 356.928 137.287 356.509 136.927Z" fill="white" stroke="#DDE0E4" stroke-width="2"/>
<path d="M356.509 87.2394L353.672 84.7957C353.253 84.4352 352.575 84.4352 352.156 84.7957L349.319 87.2394C348.9 87.5998 348.9 88.1841 349.319 88.5445L352.156 90.9882C352.575 91.3487 353.253 91.3487 353.672 90.9882L356.509 88.5445C356.928 88.1841 356.928 87.5998 356.509 87.2394Z" fill="white" stroke="#DDE0E4" stroke-width="2"/>
<path d="M239.509 136.927L236.672 134.483C236.253 134.123 235.575 134.123 235.156 134.483L232.319 136.927C231.9 137.287 231.9 137.872 232.319 138.232L235.156 140.676C235.575 141.036 236.253 141.036 236.672 140.676L239.509 138.232C239.928 137.872 239.928 137.287 239.509 136.927Z" fill="white" stroke="#DDE0E4" stroke-width="2"/>
<path d="M239.509 111.239L236.672 108.795C236.253 108.435 235.575 108.435 235.156 108.795L232.319 111.239C231.9 111.599 231.9 112.184 232.319 112.544L235.156 114.988C235.575 115.348 236.253 115.348 236.672 114.988L239.509 112.544C239.928 112.184 239.928 111.599 239.509 111.239Z" fill="white" stroke="#DDE0E4" stroke-width="2"/>
<path d="M121.509 136.927L118.672 134.483C118.253 134.123 117.575 134.123 117.156 134.483L114.319 136.927C113.9 137.287 113.9 137.872 114.319 138.232L117.156 140.676C117.575 141.036 118.253 141.036 118.672 140.676L121.509 138.232C121.928 137.872 121.928 137.287 121.509 136.927Z" fill="white" stroke="#DDE0E4" stroke-width="2"/>
<path d="M121.509 127.239L118.672 124.795C118.253 124.435 117.575 124.435 117.156 124.795L114.319 127.239C113.9 127.599 113.9 128.184 114.319 128.544L117.156 130.988C117.575 131.348 118.253 131.348 118.672 130.988L121.509 128.544C121.928 128.184 121.928 127.599 121.509 127.239Z" fill="white" stroke="#DDE0E4" stroke-width="2"/>
<path d="M592.757 136.933L589.845 134.465C589.424 134.108 588.74 134.108 588.319 134.465L585.407 136.933C584.985 137.29 584.985 137.869 585.407 138.226L588.319 140.694C588.74 141.051 589.424 141.051 589.845 140.694L592.757 138.226C593.179 137.869 593.179 137.29 592.757 136.933Z" fill="white" stroke="#DDE0E4" stroke-width="2"/>
</g>
</g>
<g clip-path="url(#clip2_590_1741)">
<g clip-path="url(#clip3_590_1741)">
<path d="M120.915 160.076L117.813 157.317C117.457 157 116.879 157 116.523 157.317L113.421 160.076C113.065 160.393 113.065 160.907 113.421 161.223L116.523 163.983C116.879 164.3 117.457 164.3 117.813 163.983L120.915 161.223C121.271 160.907 121.271 160.393 120.915 160.076Z" fill="white" stroke="#37DD00" stroke-width="1.72598"/>
</g>
</g>
<g clip-path="url(#clip4_590_1741)">
<g clip-path="url(#clip5_590_1741)">
<path d="M120.915 150.076L117.813 147.317C117.457 147 116.879 147 116.523 147.317L113.421 150.076C113.065 150.393 113.065 150.907 113.421 151.223L116.523 153.983C116.879 154.3 117.457 154.3 117.813 153.983L120.915 151.223C121.271 150.907 121.271 150.393 120.915 150.076Z" fill="white" stroke="#37DD00" stroke-width="1.72598"/>
</g>
</g>
<g clip-path="url(#clip6_590_1741)">
<g clip-path="url(#clip7_590_1741)">
<path d="M238.704 160.076L235.602 157.317C235.246 157 234.668 157 234.312 157.317L231.21 160.076C230.854 160.393 230.854 160.907 231.21 161.223L234.312 163.983C234.668 164.3 235.246 164.3 235.602 163.983L238.704 161.223C239.06 160.907 239.06 160.393 238.704 160.076Z" fill="white" stroke="#37DD00" stroke-width="1.72598"/>
</g>
</g>
<g clip-path="url(#clip8_590_1741)">
<g clip-path="url(#clip9_590_1741)">
<path d="M238.704 134.076L235.602 131.317C235.246 131 234.668 131 234.312 131.317L231.21 134.076C230.854 134.393 230.854 134.907 231.21 135.223L234.312 137.983C234.668 138.3 235.246 138.3 235.602 137.983L238.704 135.223C239.06 134.907 239.06 134.393 238.704 134.076Z" fill="white" stroke="#37DD00" stroke-width="1.72598"/>
</g>
</g>
<g clip-path="url(#clip10_590_1741)">
<g clip-path="url(#clip11_590_1741)">
<path d="M235.016 110.729V138.272" stroke="#37DD00" stroke-width="1.5" stroke-dasharray="4 4"/>
<path d="M352.391 85.8379V137.838" stroke="#37DD00" stroke-width="1.5" stroke-dasharray="4 4"/>
<path d="M117.207 131.621V139.703" stroke="#37DD00" stroke-width="1.5" stroke-dasharray="4 4"/>
<path d="M0.328125 138.643H352.33" stroke="#37DD00" stroke-width="1.5" stroke-dasharray="4 4"/>
<path d="M1.39062 138.37C73.2947 135.531 211.565 121.008 352.391 87.9707" stroke="#37DD00" stroke-width="3"/>
</g>
</g>
<path d="M468.825 178.678H470.344V179.392C470.344 179.467 470.321 179.53 470.274 179.581C470.232 179.632 470.164 179.658 470.071 179.658H468.825V182.297H467.726V179.658H463.281C463.188 179.658 463.106 179.632 463.036 179.581C462.971 179.525 462.929 179.457 462.91 179.378L462.784 178.741L467.663 172.266H468.825V178.678ZM467.726 174.541C467.726 174.42 467.728 174.289 467.733 174.149C467.742 174.009 467.759 173.864 467.782 173.715L464.135 178.678H467.726V174.541ZM475.707 178.307V182.297H474.356V178.307L470.681 172.266H471.871C471.992 172.266 472.088 172.296 472.158 172.357C472.228 172.418 472.289 172.492 472.34 172.581L474.636 176.48C474.729 176.643 474.806 176.797 474.867 176.942C474.932 177.087 474.991 177.229 475.042 177.369C475.093 177.224 475.149 177.08 475.21 176.935C475.271 176.79 475.348 176.639 475.441 176.48L477.73 172.581C477.772 172.506 477.828 172.436 477.898 172.371C477.973 172.301 478.068 172.266 478.185 172.266H479.389L475.707 178.307Z" fill="white"/>
<defs>
<clipPath id="clip0_590_1741">
<rect width="594" height="140" fill="white" transform="translate(2.04688 2.79688)"/>
</clipPath>
<clipPath id="clip1_590_1741">
<rect width="593" height="138" fill="white" transform="translate(2.04688 4.79688)"/>
</clipPath>
<clipPath id="clip2_590_1741">
<rect width="10" height="10" fill="white" transform="translate(112.848 155.797)"/>
</clipPath>
<clipPath id="clip3_590_1741">
<rect width="11" height="10" fill="white" transform="translate(111.848 155.797)"/>
</clipPath>
<clipPath id="clip4_590_1741">
<rect width="10" height="10" fill="white" transform="translate(112.848 145.797)"/>
</clipPath>
<clipPath id="clip5_590_1741">
<rect width="11" height="10" fill="white" transform="translate(111.848 145.797)"/>
</clipPath>
<clipPath id="clip6_590_1741">
<rect width="10" height="10" fill="white" transform="translate(230.637 155.797)"/>
</clipPath>
<clipPath id="clip7_590_1741">
<rect width="11" height="10" fill="white" transform="translate(229.637 155.797)"/>
</clipPath>
<clipPath id="clip8_590_1741">
<rect width="10" height="10" fill="white" transform="translate(230.637 129.797)"/>
</clipPath>
<clipPath id="clip9_590_1741">
<rect width="11" height="10" fill="white" transform="translate(229.637 129.797)"/>
</clipPath>
<clipPath id="clip10_590_1741">
<rect width="594" height="140" fill="white" transform="translate(0.328125 0.796875)"/>
</clipPath>
<clipPath id="clip11_590_1741">
<rect width="353" height="55" fill="white" transform="translate(0.328125 85.7969)"/>
</clipPath>
</defs>
</svg>
