<?xml version="1.0" encoding="UTF-8"?>
<svg id="Layer_2" data-name="Layer 2" xmlns="http://www.w3.org/2000/svg" viewBox="0 0 665.12 759.9">
  <defs>
    <style>
      .cls-1 {
        opacity: .3;
      }

      .cls-1, .cls-2, .cls-3 {
        stroke-width: 0px;
      }

      .cls-1, .cls-3 {
        fill: #fff;
      }

      .cls-2 {
        fill: #37dd00;
      }
    </style>
  </defs>
  <g id="Layer_1-2" data-name="Layer 1">
    <g>
      <g>
        <path class="cls-3" d="m105.21,622.58l-.32-341.54c.7-.06-3.49-24.45,12.94-36.28,17.75-12.78,189.41-112.85,189.41-112.85,0,0,22.51-13.88,41.86-1.05s190.88,112.95,190.88,112.95c0,0,12.3,6.94,12.94,25.87.63,18.93.32,222.44.32,222.44,0,0,2.52,15.46-11.36,25.56-13.88,10.1-197.2,118.63-197.2,118.63,0,0-10.73,5.99-34.08-1.89-23.35-7.89-116.74-68.47-116.74-68.47v120.53s122.1,71.31,122.1,71.31c0,0,16.09,6.31,30.6-2.84s290.9-170.06,290.9-170.06c0,0,19.56-9.15,19.88-32.5.32-23.35,0-338.23,0-338.23,0,0,.63-23.03-15.14-34.08-15.78-11.04-297.53-174.48-297.53-174.48,0,0-13.67-8.73-28.82-1.37C300.72,11.59,15.92,179.44,15.92,179.44c0,0-15.46,8.83-15.78,25.24-.32,16.41,0,351.69,0,351.69,0,0-.21,13.88,11.36,22.3l93.55,56.21.16-12.3Z"/>
        <path class="cls-3" d="m316.07,230.77l-108.01,63.84s-14.83,6.63-14.51,25.87,0,122.52,0,122.52c0,0,.11,13.46,10.62,21.03,10.52,7.57,111.9,65.84,111.9,65.84,0,0,8.73,6.73,21.67.89s114.85-65.47,114.85-65.47c0,0,12.2-5.89,12.2-23.56v-123.47s1.05-11.57-9.68-19.35c-10.73-7.78-114.43-68.99-114.43-68.99,0,0-13.36-7.26-24.61.84Z"/>
      </g>
      <g>
        <path class="cls-2" d="m112.83,621.86l-.32-341.54c.7-.06-3.49-24.45,12.94-36.28,17.75-12.78,189.41-112.85,189.41-112.85,0,0,22.51-13.88,41.86-1.05,19.35,12.83,190.88,112.95,190.88,112.95,0,0,12.3,6.94,12.94,25.87.63,18.93.32,222.44.32,222.44,0,0,2.52,15.46-11.36,25.56-13.88,10.1-197.2,118.63-197.2,118.63,0,0-10.73,5.99-34.08-1.89-23.35-7.89-116.74-68.47-116.74-68.47v120.53s122.1,71.31,122.1,71.31c0,0,16.09,6.31,30.6-2.84,14.51-9.15,290.9-170.06,290.9-170.06,0,0,19.56-9.15,19.88-32.5.32-23.35,0-338.23,0-338.23,0,0,.63-23.03-15.14-34.08-15.78-11.04-297.53-174.48-297.53-174.48,0,0-13.67-8.73-28.82-1.37C308.35,10.87,23.54,178.72,23.54,178.72c0,0-15.46,8.83-15.78,25.24-.32,16.41,0,351.69,0,351.69,0,0-.21,13.88,11.36,22.3l93.55,56.21.16-12.3Z"/>
        <path class="cls-2" d="m323.7,230.05l-108.01,63.84s-14.83,6.63-14.51,25.87,0,122.52,0,122.52c0,0,.11,13.46,10.62,21.03,10.52,7.57,111.9,65.84,111.9,65.84,0,0,8.73,6.73,21.67.89,12.94-5.84,114.85-65.47,114.85-65.47,0,0,12.2-5.89,12.2-23.56v-123.47s1.05-11.57-9.68-19.35-114.43-68.99-114.43-68.99c0,0-13.36-7.26-24.61.84Z"/>
        <path class="cls-1" d="m462.3,298.2c-.31-.24-.71-.51-1.19-.83-15.57-10.52-113.24-68.17-113.24-68.17,0,0-13.36-7.26-24.61.84l-108.01,63.84s-2.83,1.27-6,4.3c-.69.66-1.39,1.4-2.08,2.23,0,0-6.79,8.04,4.88,15.03s124.74,78.45,124.74,78.45c0,0,124.67-78.45,129.09-82.03,0,0,7.02-5.36-3.59-13.67Z"/>
        <path class="cls-1" d="m14.24,192.09l103.45,55.69,198.69-117.54s23.99-15.7,47.92,3.67c27.65,16.67,184.78,110.19,184.78,110.19l107.22-58.57s-3.01-4.18-6.7-6.53S354.36,5.1,354.36,5.1c0,0-14.63-9.91-30.11-2.11C309.28,11.34,21.23,180.3,21.23,180.3c0,0-11.05,8.6-6.99,11.79Z"/>
      </g>
    </g>
  </g>
</svg>