<svg width="32" height="32" viewBox="0 0 32 32" fill="none" xmlns="http://www.w3.org/2000/svg">
<path d="M15.9589 31.8945C7.24209 31.8945 0.175781 24.8152 0.175781 16.0825C0.175781 7.34976 7.24209 0.270508 15.9589 0.270508C24.6756 0.270508 31.7419 7.34976 31.7419 16.0825C31.7419 24.8152 24.6756 31.8945 15.9589 31.8945Z" fill="#222221"/>
<path d="M15.9605 8.97835C18.2745 8.97835 18.5482 8.98666 19.4605 9.0282C20.3064 9.06975 20.7626 9.211 21.0695 9.32732C21.4759 9.48519 21.7579 9.6763 22.0647 9.97543C22.3716 10.2829 22.5541 10.5654 22.7116 10.9725C22.8278 11.2799 22.9687 11.7369 23.0102 12.5844C23.0517 13.4984 23.06 13.7726 23.06 16.0908C23.06 18.409 23.0517 18.6832 23.0102 19.5972C22.9687 20.4447 22.8278 20.9017 22.7116 21.2092C22.5541 21.6163 22.3633 21.8988 22.0647 22.2062C21.7661 22.5054 21.4759 22.6965 21.0695 22.8543C20.7626 22.9707 20.3064 23.1119 19.4605 23.1535C18.5482 23.195 18.2745 23.2033 15.9605 23.2033C13.6465 23.2033 13.3728 23.195 12.4605 23.1535C11.6146 23.1119 11.1584 22.9707 10.8515 22.8543C10.4451 22.6965 10.1631 22.5054 9.85627 22.2062C9.55769 21.8988 9.36694 21.6163 9.20935 21.2092C9.09324 20.9017 8.95225 20.4447 8.91078 19.5972C8.86931 18.6832 8.861 18.409 8.861 16.0908C8.861 13.7726 8.86931 13.4984 8.91078 12.5844C8.95225 11.7369 9.09324 11.2799 9.20935 10.9725C9.36694 10.5654 9.55769 10.2829 9.85627 9.97543C10.1631 9.66799 10.4451 9.48519 10.8515 9.32732C11.1584 9.211 11.6146 9.06975 12.4605 9.0282C13.3728 8.98666 13.6465 8.97835 15.9605 8.97835ZM15.9605 7.41626C13.6134 7.41626 13.3148 7.42457 12.3942 7.46611C11.4736 7.50766 10.8432 7.65722 10.2958 7.87325C9.72357 8.0976 9.24252 8.38841 8.76148 8.87033C8.28044 9.35225 7.98187 9.83417 7.76623 10.4075C7.55059 10.9559 7.4096 11.5874 7.36813 12.5097C7.32666 13.432 7.31836 13.7311 7.31836 16.0825C7.31836 18.434 7.32666 18.7331 7.36813 19.6554C7.4096 20.5777 7.55889 21.2092 7.76623 21.7576C7.99016 22.3309 8.28044 22.8128 8.76148 23.2947C9.24252 23.7766 9.72357 24.0758 10.2958 24.2918C10.8432 24.5078 11.4736 24.6491 12.3942 24.6989C13.3148 24.7405 13.6134 24.7488 15.9605 24.7488C18.3076 24.7488 18.6062 24.7405 19.5268 24.6989C20.4474 24.6574 21.0778 24.5078 21.6251 24.2918C22.1974 24.0675 22.6785 23.7766 23.1595 23.2947C23.6405 22.8128 23.9391 22.3309 24.1548 21.7576C24.3704 21.2092 24.5114 20.5777 24.5611 19.6554C24.6026 18.7331 24.6109 18.434 24.6109 16.0825C24.6109 13.7311 24.6026 13.432 24.5611 12.5097C24.5197 11.5874 24.3704 10.9559 24.1548 10.4075C23.9308 9.83417 23.6405 9.35225 23.1595 8.87033C22.6785 8.38841 22.1974 8.08929 21.6251 7.87325C21.0778 7.65722 20.4474 7.51597 19.5268 7.46611C18.6062 7.42457 18.3076 7.41626 15.9605 7.41626Z" fill="white"/>
<path d="M15.9591 11.6289C13.5042 11.6289 11.5137 13.6231 11.5137 16.0825C11.5137 18.542 13.5042 20.5361 15.9591 20.5361C18.4141 20.5361 20.4046 18.542 20.4046 16.0825C20.4046 13.6231 18.4141 11.6289 15.9591 11.6289ZM15.9591 18.974C14.3667 18.974 13.0729 17.6778 13.0729 16.0825C13.0729 14.4872 14.3667 13.191 15.9591 13.191C17.5515 13.191 18.8454 14.4872 18.8454 16.0825C18.8454 17.6778 17.5515 18.974 15.9591 18.974Z" fill="white"/>
<path d="M21.6242 11.4541C21.6242 12.0275 21.1598 12.4928 20.5875 12.4928C20.0152 12.4928 19.5508 12.0275 19.5508 11.4541C19.5508 10.8808 20.0152 10.4155 20.5875 10.4155C21.1598 10.4155 21.6242 10.8808 21.6242 11.4541Z" fill="white"/>
</svg>
