<svg width="57" height="54" viewBox="0 0 57 54" fill="none" xmlns="http://www.w3.org/2000/svg">
<path d="M47.7727 41.4522L47.6108 40.678L47.7727 39.9038C48.1253 38.2175 49.622 36.9549 51.4038 36.9549C53.4438 36.9549 55.1215 38.6354 55.1215 40.6834C55.1215 42.7273 53.4478 44.401 51.4038 44.401C49.622 44.401 48.1253 43.1384 47.7727 41.4522ZM39.3547 29.1676V29.1784H38.703H29.3865H28.7349H27.8865H27.2349H17.9184H17.2668V29.1676H15.7668H13.0343C8.61165 29.1676 5.00261 25.5671 5.00261 21.1359C5.00261 16.7048 8.61165 13.1043 13.0343 13.1043C13.733 13.1043 14.4123 13.1869 15.0662 13.3571L16.7078 13.7844L16.931 12.1029C17.6826 6.44258 22.4515 2.17407 28.3107 2.17407C34.1699 2.17407 38.9389 6.44258 39.6905 12.1029L39.9137 13.7844L41.5552 13.3571C42.2091 13.1869 42.8885 13.1043 43.5872 13.1043C48.0098 13.1043 51.6189 16.7048 51.6189 21.1359C51.6189 25.5671 48.0098 29.1676 43.5872 29.1676H40.8547H39.3547ZM27.5419 44.9793L28.3107 44.8185L29.0795 44.9793C30.7658 45.3319 32.0284 46.8286 32.0284 48.6104C32.0284 50.6544 30.3547 52.328 28.3107 52.328C26.2668 52.328 24.5931 50.6544 24.5931 48.6104C24.5931 46.8286 25.8557 45.3319 27.5419 44.9793ZM8.84875 39.9038L9.011 40.6797L8.84903 41.4508C8.49625 43.1304 6.99651 44.401 5.21767 44.401C3.17167 44.401 1.5 42.7361 1.5 40.6834C1.5 38.6266 3.1757 36.9549 5.21767 36.9549C6.99944 36.9549 8.49617 38.2175 8.84875 39.9038Z" stroke="#37DD00" stroke-width="3"/>
</svg>
