<svg width="36" height="37" viewBox="0 0 36 37" fill="none" xmlns="http://www.w3.org/2000/svg">
<path d="M26.8197 26.4522C26.7169 26.4522 26.6154 26.4252 26.5234 26.3712L20.3785 22.7621C20.0917 22.5938 19.9925 22.2193 20.155 21.9246C20.3211 21.6274 20.6867 21.5292 20.9711 21.6962L26.8197 25.1309L33.979 20.9262L26.8197 16.7215L18.7523 21.4592C18.4692 21.6249 18.1012 21.5255 17.9363 21.2308C17.7726 20.936 17.8718 20.5615 18.1597 20.3933L26.5234 15.4813C26.7074 15.3732 26.932 15.3732 27.116 15.4813L35.4797 20.3933C35.6661 20.5026 35.7808 20.7064 35.7808 20.9262C35.7808 21.146 35.6661 21.3499 35.4797 21.4592L27.116 26.3712C27.024 26.4252 26.9225 26.4522 26.8197 26.4522Z" fill="#37DD00"/>
<path d="M26.8196 36.8902C26.7156 36.8902 26.6117 36.8632 26.5197 36.808C26.3357 36.6975 26.2222 36.4948 26.2222 36.2762V25.8382C26.2222 25.6184 26.3369 25.4146 26.5233 25.3053L34.8869 20.3933C35.0733 20.2852 35.3015 20.2864 35.4832 20.3945C35.6672 20.505 35.7807 20.7076 35.7807 20.9262V31.3642C35.7807 31.5841 35.666 31.7879 35.4796 31.8972L27.1159 36.8092C27.0239 36.8632 26.9223 36.8902 26.8196 36.8902ZM27.417 26.1944V35.2177L34.5859 31.0081V21.9848L27.417 26.1944Z" fill="#37DD00"/>
<path d="M26.8197 36.8903C26.717 36.8903 26.6154 36.8632 26.5234 36.8092L18.1597 31.8972C17.9733 31.7879 17.8586 31.5841 17.8586 31.3642V20.9262C17.8586 20.7076 17.9721 20.505 18.1562 20.3945C18.339 20.2852 18.5672 20.284 18.7524 20.3933L27.116 25.3053C27.3024 25.4146 27.4171 25.6184 27.4171 25.8382V36.2763C27.4171 36.4948 27.3036 36.6975 27.1196 36.808C27.0276 36.8632 26.9237 36.8903 26.8197 36.8903ZM19.0535 31.0081L26.2223 35.2177V26.1944L19.0535 21.9848V31.0081Z" fill="#37DD00"/>
<path d="M10.0923 36.8902C9.98833 36.8902 9.88438 36.8632 9.79238 36.808C9.60838 36.6975 9.49487 36.4948 9.49487 36.2762V25.8382C9.49487 25.6184 9.60957 25.4146 9.79597 25.3053L18.1597 20.3933C18.346 20.2852 18.5743 20.2864 18.7559 20.3945C18.9399 20.505 19.0534 20.7076 19.0534 20.9262V31.3642C19.0534 31.5841 18.9387 31.7879 18.7523 31.8972L10.3886 36.8092C10.2966 36.8632 10.195 36.8902 10.0923 36.8902ZM10.6897 26.1944V35.2177L17.8586 31.0081V21.9848L10.6897 26.1944Z" fill="#37DD00"/>
<path d="M10.0922 36.8902C9.98944 36.8902 9.88788 36.8632 9.79588 36.8092L1.4322 31.8972C1.24581 31.7879 1.1311 31.584 1.1311 31.3642V20.9262C1.1311 20.7076 1.24461 20.505 1.42861 20.3945C1.61142 20.2852 1.83963 20.284 2.02482 20.3932L10.3885 25.3053C10.5749 25.4145 10.6896 25.6184 10.6896 25.8382V36.2762C10.6896 36.4948 10.5761 36.6974 10.3921 36.8079C10.3001 36.8632 10.1961 36.8902 10.0922 36.8902ZM2.32592 31.0081L9.49479 35.2177V26.1943L2.32592 21.9847V31.0081Z" fill="#37DD00"/>
<path d="M18.456 11.1329C18.3532 11.1329 18.2517 11.1059 18.1597 11.0518L9.79597 6.13983C9.60957 6.03054 9.49487 5.82669 9.49487 5.60688C9.49487 5.38707 9.60957 5.18322 9.79597 5.07393L18.1597 0.16192C18.3437 0.0538555 18.5683 0.0538555 18.7523 0.16192L27.116 5.07393C27.3024 5.18322 27.4171 5.38707 27.4171 5.60688C27.4171 5.82669 27.3024 6.03054 27.116 6.13983L18.7523 11.0518C18.6603 11.1059 18.5587 11.1329 18.456 11.1329ZM11.2967 5.60688L18.456 9.81156L25.6153 5.60688L18.456 1.4022L11.2967 5.60688Z" fill="#37DD00"/>
<path d="M18.456 21.5709C18.3521 21.5709 18.2482 21.5439 18.1562 21.4886C17.9721 21.3781 17.8586 21.1755 17.8586 20.9569V10.5189C17.8586 10.2991 17.9733 10.0952 18.1597 9.98594L26.5234 5.07394C26.7086 4.96587 26.9368 4.9671 27.1196 5.07516C27.3036 5.18568 27.4171 5.3883 27.4171 5.60689V16.0449C27.4171 16.2647 27.3024 16.4686 27.116 16.5779L18.7524 21.4899C18.6604 21.5439 18.5588 21.5709 18.456 21.5709ZM19.0535 10.875V19.8984L26.2223 15.6888V6.66543L19.0535 10.875Z" fill="#37DD00"/>
<path d="M18.456 21.5709C18.1262 21.5709 17.8586 21.2958 17.8586 20.9569V10.875L10.6897 6.6654V12.9749C10.6897 13.3138 10.422 13.5889 10.0923 13.5889C9.76251 13.5889 9.49487 13.3138 9.49487 12.9749V5.60686C9.49487 5.38828 9.60838 5.18566 9.79238 5.07514C9.97519 4.96462 10.2034 4.96462 10.3886 5.07391L18.7523 9.98592C18.9387 10.0952 19.0534 10.2991 19.0534 10.5189V20.9569C19.0534 21.2958 18.7857 21.5709 18.456 21.5709Z" fill="#37DD00"/>
<path d="M10.0922 26.4522C9.98944 26.4522 9.88788 26.4252 9.79588 26.3712L1.4322 21.4592C1.24581 21.3499 1.1311 21.146 1.1311 20.9262C1.1311 20.7064 1.24581 20.5026 1.4322 20.3933L9.79588 15.4813C9.97989 15.3732 10.2045 15.3732 10.3885 15.4813L15.9336 18.7379C16.2204 18.9062 16.3196 19.2807 16.1571 19.5754C15.991 19.8714 15.6242 19.9708 15.341 19.8038L10.0922 16.7215L2.93288 20.9262L10.0922 25.1309L18.1596 20.3933C18.4415 20.2263 18.8084 20.3257 18.9756 20.6217C19.1393 20.9164 19.0401 21.2909 18.7522 21.4592L10.3885 26.3712C10.2965 26.4252 10.195 26.4522 10.0922 26.4522Z" fill="#37DD00"/>
</svg>
