<svg width="37" height="36" viewBox="0 0 37 36" fill="none" xmlns="http://www.w3.org/2000/svg">
<g clip-path="url(#clip0_80_370)">
<path d="M26.5627 18.0639C25.8516 17.7351 25.1262 17.4518 24.388 17.2145C26.7787 15.4685 28.3281 12.6882 28.3281 9.5625C28.3281 4.28977 23.9192 0 18.5 0C13.0807 0 8.67185 4.28977 8.67185 9.5625C8.67185 12.6917 10.2247 15.4747 12.6199 17.2203C10.4254 17.9233 8.36617 19.0171 6.56386 20.4595C3.25901 23.1045 0.961177 26.7937 0.093773 30.8477C-0.17809 32.118 0.147611 33.4227 0.987193 34.4272C1.82266 35.4267 3.06151 36 4.38599 36H22.1855C22.9838 36 23.6308 35.3704 23.6308 34.5938C23.6308 33.8171 22.9838 33.1875 22.1855 33.1875H4.38599C3.76899 33.1875 3.39675 32.8524 3.22981 32.6527C2.94154 32.3078 2.82997 31.8589 2.9237 31.4209C4.42357 24.4111 10.7783 19.2905 18.1168 19.1178C18.2439 19.1226 18.3716 19.125 18.5 19.125C18.6295 19.125 18.7585 19.1225 18.8869 19.1177C21.1358 19.169 23.2987 19.6684 25.3217 20.6041C26.0427 20.9374 26.9048 20.6392 27.2475 19.9377C27.5902 19.2362 27.2836 18.3973 26.5627 18.0639ZM18.8525 16.3039C18.7352 16.3018 18.6177 16.3008 18.5 16.3008C18.3833 16.3008 18.2667 16.3019 18.1502 16.304C14.4867 16.1262 11.5625 13.1704 11.5625 9.5625C11.5625 5.84051 14.6746 2.8125 18.5 2.8125C22.3254 2.8125 25.4375 5.84051 25.4375 9.5625C25.4375 13.1695 22.5147 16.1247 18.8525 16.3039Z" fill="#36DC00"/>
<path d="M35.5547 27.9141H31.5801V24.0469C31.5801 23.2702 30.933 22.6406 30.1348 22.6406C29.3365 22.6406 28.6895 23.2702 28.6895 24.0469V27.9141H24.7148C23.9166 27.9141 23.2695 28.5436 23.2695 29.3203C23.2695 30.097 23.9166 30.7266 24.7148 30.7266H28.6895V34.5938C28.6895 35.3704 29.3365 36 30.1348 36C30.933 36 31.5801 35.3704 31.5801 34.5938V30.7266H35.5547C36.3529 30.7266 37 30.097 37 29.3203C37 28.5436 36.3529 27.9141 35.5547 27.9141Z" fill="#36DC00"/>
</g>
<defs>
<clipPath id="clip0_80_370">
<rect width="37" height="36" fill="white"/>
</clipPath>
</defs>
</svg>
