<svg width="45" height="45" viewBox="0 0 45 45" fill="none" xmlns="http://www.w3.org/2000/svg">
<g clip-path="url(#clip0_80_378)">
<path d="M27.7149 29.9186C29.4065 29.9186 30.9528 30.1521 32.0852 30.5296C33.4294 30.9776 34.2608 31.6822 34.2608 32.537C34.2608 33.3917 33.4294 34.0963 32.0852 34.5444C30.9528 34.9218 29.4065 35.1554 27.7149 35.1554C26.0233 35.1554 24.477 34.9218 23.3445 34.5444C22.0004 34.0963 21.1689 33.3917 21.1689 32.537C21.1689 31.6822 22.0004 30.9776 23.3445 30.5296C24.477 30.1521 26.0233 29.9186 27.7149 29.9186ZM31.6761 31.7671C30.6764 31.4339 29.2769 31.2278 27.7149 31.2278C26.1528 31.2278 24.7534 31.4339 23.7537 31.7671C22.9656 32.0298 22.4782 32.3072 22.4782 32.537C22.4782 32.7667 22.9656 33.0441 23.7537 33.3068C24.7534 33.64 26.1528 33.8461 27.7149 33.8461C29.2769 33.8461 30.6764 33.64 31.6761 33.3068C32.4641 33.0441 32.9516 32.7667 32.9516 32.537C32.9516 32.3072 32.4641 32.0298 31.6761 31.7671Z" fill="#36DC00"/>
<path d="M33.7673 36.2589C33.2818 36.7443 32.4086 37.1386 31.311 37.4023C30.2769 37.6507 29.0271 37.7934 27.7154 37.7934C26.3848 37.7934 25.1207 37.6472 24.0814 37.3936C22.9758 37.1237 22.1012 36.7181 21.626 36.2179L22.5721 35.3179C22.8723 35.6339 23.5217 35.9138 24.3882 36.1253C25.3211 36.353 26.4776 36.4842 27.7154 36.4842C28.9395 36.4842 30.0833 36.3564 31.0093 36.134C31.8717 35.9268 32.5252 35.6496 32.8416 35.3332L33.7673 36.2589Z" fill="#36DC00"/>
<path d="M33.7673 38.9193C33.2818 39.4047 32.4086 39.7989 31.311 40.0627C30.2769 40.3111 29.0271 40.4538 27.7154 40.4538C26.3848 40.4538 25.1207 40.3076 24.0814 40.054C22.9758 39.7841 22.1012 39.3785 21.626 38.8783L22.5721 37.9783C22.8723 38.2943 23.5217 38.5742 24.3882 38.7857C25.3211 39.0134 26.4776 39.1446 27.7154 39.1446C28.9395 39.1446 30.0833 39.0168 31.0093 38.7944C31.8717 38.5872 32.5252 38.31 32.8416 37.9936L33.7673 38.9193Z" fill="#36DC00"/>
<path d="M33.7673 41.5799C33.2818 42.0654 32.4086 42.4596 31.311 42.7234C30.2769 42.9717 29.0271 43.1145 27.7154 43.1145C26.3848 43.1145 25.1207 42.9683 24.0814 42.7146C22.9758 42.4448 22.1012 42.0392 21.626 41.539L22.5721 40.6389C22.8723 40.9549 23.5217 41.2348 24.3882 41.4464C25.3211 41.674 26.4776 41.8052 27.7154 41.8052C28.9395 41.8052 30.0833 41.6775 31.0093 41.4551C31.8717 41.2479 32.5252 40.9706 32.8416 40.6543L33.7673 41.5799Z" fill="#36DC00"/>
<path d="M14.6236 33.1299C16.3152 33.1299 17.8615 33.3634 18.994 33.7409C20.3381 34.1889 21.1695 34.8935 21.1695 35.7483C21.1695 36.6031 20.3381 37.3076 18.994 37.7557C17.8615 38.1332 16.3152 38.3667 14.6236 38.3667C12.932 38.3667 11.3857 38.1332 10.2532 37.7557C8.90905 37.3076 8.07764 36.6031 8.07764 35.7483C8.07764 34.8935 8.90905 34.1889 10.2532 33.7409C11.3857 33.3634 12.932 33.1299 14.6236 33.1299ZM18.5848 34.9785C17.5851 34.6452 16.1857 34.4391 14.6236 34.4391C13.0615 34.4391 11.6621 34.6452 10.6624 34.9785C9.87433 35.2411 9.38686 35.5185 9.38686 35.7483C9.38686 35.978 9.87433 36.2554 10.6624 36.5181C11.6621 36.8513 13.0615 37.0574 14.6236 37.0574C16.1857 37.0574 17.5851 36.8513 18.5848 36.5181C19.3728 36.2554 19.8603 35.978 19.8603 35.7483C19.8603 35.5185 19.3728 35.2411 18.5848 34.9785Z" fill="#36DC00"/>
<path d="M20.6755 39.4699C20.19 39.9554 19.3168 40.3496 18.2192 40.6133C17.1851 40.8617 15.9353 41.0045 14.6237 41.0045C13.293 41.0045 12.0289 40.8583 10.9896 40.6046C9.88403 40.3348 9.00938 39.9291 8.53418 39.429L9.48027 38.5289C9.78051 38.8449 10.4299 39.1248 11.2965 39.3363C12.2293 39.564 13.3858 39.6952 14.6237 39.6952C15.8477 39.6952 16.9916 39.5675 17.9175 39.345C18.78 39.1378 19.4335 38.8606 19.7498 38.5442L20.6755 39.4699Z" fill="#36DC00"/>
<path d="M20.6755 42.1306C20.19 42.6161 19.3168 43.0103 18.2192 43.274C17.1851 43.5224 15.9353 43.6652 14.6237 43.6652C13.293 43.6652 12.0289 43.519 10.9896 43.2653C9.88403 42.9955 9.00938 42.5898 8.53418 42.0897L9.48027 41.1896C9.78051 41.5056 10.4299 41.7855 11.2965 41.997C12.2293 42.2247 13.3858 42.3559 14.6237 42.3559C15.8477 42.3559 16.9916 42.2282 17.9175 42.0057C18.78 41.7985 19.4335 41.5213 19.7498 41.2049L20.6755 42.1306Z" fill="#36DC00"/>
<path d="M28.171 13.0694L28.1398 13.0352C27.4118 12.3406 27.5603 11.4414 27.7413 10.3467C27.8721 9.55503 28.0271 8.61756 27.7404 7.76675L27.7372 7.76351C27.5153 7.0926 26.513 6.25674 25.3302 5.53883C23.9266 4.6869 22.3394 4.05288 21.4653 4.04717L21.3077 4.03107C21.1783 4.00495 21.0019 4.01107 20.8154 4.03722C20.5821 4.06993 20.3578 4.13265 20.1929 4.20451L20.1576 4.21734C19.8377 4.34019 18.656 4.86775 17.6335 5.82658C17.0773 6.34818 16.5774 6.9953 16.3232 7.76351L16.32 7.76675C16.0337 8.61715 16.1887 9.55456 16.3196 10.3463C16.5008 11.4428 16.6496 12.3433 15.9178 13.0383L15.8901 13.0685C15.8782 13.0963 15.9457 13.1078 15.9511 13.2392C15.9632 13.5381 16.034 13.9183 16.1519 14.3168L16.1584 14.3361C16.2932 14.839 16.4502 15.0744 16.5523 15.2274C16.6439 15.3648 16.7147 15.4709 16.7683 15.6205L16.7972 15.7266C17.153 17.3938 17.953 18.9337 18.9771 20.0429C19.9102 21.0535 21.0149 21.6883 22.1004 21.6883C23.1697 21.6883 24.2307 21.067 25.1246 20.076C26.1272 18.9646 26.9037 17.4111 27.2631 15.7266L27.2953 15.6205C27.3533 15.4595 27.4207 15.3587 27.5079 15.2281C27.6101 15.075 27.7673 14.8396 27.9022 14.3361L27.9087 14.3168C28.0273 13.9158 28.1 13.5193 28.1125 13.2115C28.1169 13.1011 28.3252 13.2091 28.2417 13.1369L28.171 13.0694ZM29.3331 11.9052L29.3862 11.9635L29.3861 11.9636C29.661 12.2544 29.7744 12.7262 29.7522 13.2758C29.7345 13.7121 29.641 14.2439 29.4897 14.7603L29.4905 14.7605C29.2877 15.5173 29.0352 15.8953 28.8711 16.1411C28.8592 16.1589 28.8541 16.1595 28.8508 16.1585C28.4227 18.0902 27.516 19.8789 26.3463 21.1756C25.1493 22.5026 23.6661 23.3344 22.1004 23.3344C20.5304 23.3344 19.0041 22.4937 17.7683 21.1553C16.5731 19.8608 15.6375 18.0818 15.21 16.1604C15.2063 16.1591 15.2013 16.1586 15.1891 16.1404C15.0251 15.8945 14.7729 15.5164 14.5702 14.7605L14.5709 14.7603C14.4202 14.2461 14.3288 13.7328 14.3114 13.3035C14.289 12.7512 14.4 12.2761 14.6677 11.9732L14.6773 11.9603L14.731 11.902L14.7824 11.8505C14.8883 11.7538 14.8032 11.2388 14.6992 10.6099C14.5384 9.63696 14.348 8.48517 14.7626 7.24974L14.7607 7.2491C15.1124 6.18628 15.7761 5.31724 16.5083 4.63061C17.6997 3.5133 19.1002 2.87376 19.5374 2.70071L19.5371 2.69989C19.8293 2.57254 20.2099 2.46376 20.5903 2.41042C20.9102 2.36557 21.2446 2.35853 21.5509 2.40925C22.7122 2.44836 24.5894 3.17233 26.179 4.13709C27.6592 5.03554 28.9458 6.17918 29.2997 7.2491L29.2977 7.24974C29.7128 8.48533 29.5224 9.63731 29.3616 10.6103C29.2577 11.2391 29.1726 11.7539 29.2784 11.8505L29.3331 11.9052Z" fill="#36DC00"/>
<path d="M36.9096 35.8727C36.5946 34.5778 35.7064 31.9502 34.5054 29.86C33.7732 28.5857 32.9486 27.5378 32.1284 27.2167C29.0511 26.2113 27.1802 25.015 26.3059 24.3602C24.901 25.5474 23.5049 26.1408 22.0806 26.1406C20.6565 26.1403 19.26 25.5465 17.8541 24.3599C16.9787 25.0159 15.1033 26.2153 12.0161 27.2219L12.016 27.2215C11.2059 27.5426 10.3842 28.5871 9.65127 29.8575C8.44421 31.9496 7.54493 34.58 7.22894 35.8727L5.63428 35.4869C5.97287 34.1018 6.93659 31.2832 8.23027 29.0409C9.14381 27.4575 10.2463 26.1307 11.476 25.6723L11.5081 25.6594C15.6494 24.3091 17.305 22.6931 17.3099 22.6884L17.8761 22.145L18.4448 22.6852C19.7185 23.8952 20.9177 24.5007 22.0806 24.5009C23.2436 24.5011 24.4421 23.896 25.7147 22.6852L26.283 22.1445L26.8496 22.6884C26.8545 22.6931 28.5108 24.3091 32.6521 25.6594L32.6874 25.6723C33.9197 26.1372 35.0183 27.463 35.9264 29.0434C37.2153 31.2865 38.1671 34.101 38.5043 35.4869L36.9096 35.8728L36.9096 35.8727Z" fill="#36DC00"/>
</g>
<defs>
<clipPath id="clip0_80_378">
<rect width="44" height="44" fill="white" transform="translate(0.0693359 0.249451)"/>
</clipPath>
</defs>
</svg>
