<svg width="47" height="53" viewBox="0 0 47 53" fill="none" xmlns="http://www.w3.org/2000/svg">
<path d="M32.3481 35.0178C37.9879 26.1679 37.279 27.272 37.4415 27.0413C39.4948 24.1451 40.5801 20.7365 40.5801 17.1836C40.5801 7.7616 32.9343 0 23.5 0C14.0964 0 6.41992 7.74628 6.41992 17.1836C6.41992 20.7342 7.52795 24.2321 9.64857 27.1673L14.6517 35.0179C9.30252 35.8399 0.208984 38.2896 0.208984 43.6836C0.208984 45.6499 1.49237 48.452 7.60642 50.6356C11.8756 52.1603 17.52 53 23.5 53C34.6823 53 46.791 49.8457 46.791 43.6836C46.791 38.2887 37.7081 35.8416 32.3481 35.0178ZM12.2426 25.4592C12.2255 25.4324 12.2077 25.4064 12.1891 25.3807C10.4244 22.953 9.52539 20.0759 9.52539 17.1836C9.52539 9.41806 15.7784 3.10547 23.5 3.10547C31.2056 3.10547 37.4746 9.42085 37.4746 17.1836C37.4746 20.0806 36.5926 22.8601 34.9234 25.2238C34.7738 25.4211 35.5542 24.2087 23.5 43.1235L12.2426 25.4592ZM23.5 49.8945C11.2858 49.8945 3.31445 46.3043 3.31445 43.6836C3.31445 41.9222 7.41036 39.0259 16.4866 37.897L22.1905 46.8472C22.4756 47.2946 22.9694 47.5654 23.4999 47.5654C24.0304 47.5654 24.5243 47.2945 24.8093 46.8472L30.5131 37.897C39.5895 39.0259 43.6855 41.9222 43.6855 43.6836C43.6855 46.282 35.786 49.8945 23.5 49.8945Z" fill="#37DD00"/>
</svg>
