<svg width="87" height="85" viewBox="0 0 87 85" fill="none" xmlns="http://www.w3.org/2000/svg">
<path d="M54.2632 62.0823H32.555C31.5128 62.0823 30.668 62.9077 30.668 63.9259C30.668 64.9441 31.5128 65.7696 32.555 65.7696H54.2632C55.3054 65.7696 56.1503 64.9441 56.1503 63.9259C56.1503 62.9077 55.3054 62.0823 54.2632 62.0823Z" fill="#03C4A1"/>
<path d="M42.6312 73.5139V74.9886C42.6312 75.4578 43.0209 75.8386 43.5012 75.8386C43.9814 75.8386 44.3712 75.4578 44.3712 74.9886V73.5139C45.4447 73.1569 46.2243 72.1734 46.2243 71.0055C46.2243 69.5384 45.0028 68.345 43.5012 68.345C41.9995 68.345 40.7781 69.5384 40.7781 71.0055C40.7781 72.1734 41.5576 73.1569 42.6312 73.5139ZM43.5012 70.0442C44.0432 70.0442 44.4843 70.4751 44.4843 71.0047C44.4843 71.5342 44.044 71.9643 43.502 71.9652H43.5003C42.9592 71.9652 42.5181 71.5334 42.5181 71.0047C42.5181 70.476 42.9592 70.0442 43.5012 70.0442ZM76.0139 27.9624C71.7483 13.9425 58.8166 4.43184 43.8996 4.30009C43.7796 4.29074 43.6491 4.28649 43.5273 4.28564C43.5133 4.28564 43.5003 4.28564 43.4864 4.28564C43.3567 4.28564 43.2445 4.28989 43.1732 4.29754H43.1419C28.1726 4.44374 15.2523 13.9501 10.9884 27.9624C10.0531 31.0309 9.57812 34.2167 9.57812 37.4314C9.57812 40.6461 10.0523 43.8327 10.9884 46.8919C14.1291 57.21 22.1809 65.3488 32.5861 68.7972V72.9112C32.5861 75.4655 34.2513 77.7273 36.73 78.5391L43.2254 80.6675C43.315 80.6972 43.4081 80.7117 43.502 80.7117C43.596 80.7117 43.6891 80.6972 43.7787 80.6675L50.2741 78.5391C52.7519 77.7273 54.4171 75.4655 54.4171 72.9112V68.7972C64.8283 65.3471 72.8837 57.2092 76.0244 46.891C76.9535 43.8225 77.4242 40.6401 77.4242 37.4322C77.4242 34.2243 76.9501 31.03 76.0148 27.9632L76.0139 27.9624ZM56.6756 45.7988C56.9583 43.0958 57.1088 40.2882 57.1088 37.4305C57.1088 34.5329 56.9583 31.727 56.6782 29.0546H74.508C75.2779 31.778 75.6842 34.5898 75.6842 37.4305C75.6842 40.2712 75.2805 43.0745 74.5149 45.7988H56.6756ZM54.3553 64.9204H32.647C32.0868 64.9204 31.6309 64.475 31.6309 63.9267C31.6309 63.3785 32.0868 62.9331 32.647 62.9331H54.3553C54.9164 62.9331 55.3723 63.3785 55.3723 63.9267C55.3723 64.475 54.9164 64.9204 54.3553 64.9204ZM48.3636 61.2331H38.644V55.1709C38.644 52.5529 40.8242 50.4228 43.5038 50.4228C46.1834 50.4228 48.3636 52.5529 48.3636 55.1709V61.2331ZM50.1036 61.2331V55.1709C50.1036 51.6153 47.143 48.7228 43.5038 48.7228C39.8646 48.7228 36.904 51.6153 36.904 55.1709V61.2331H35.8513C34.1878 57.488 32.9637 52.7467 32.2773 47.4988H54.7294C54.043 52.7552 52.8189 57.4965 51.1528 61.2331H50.1036ZM32.0746 45.7988C31.7866 43.1009 31.6344 40.2916 31.6344 37.4305C31.6344 34.5371 31.7901 31.7287 32.0737 29.0546H54.9286C55.2131 31.7296 55.368 34.5371 55.368 37.4305C55.368 40.2933 55.2166 43.1026 54.9286 45.7988H32.0746ZM12.4944 45.7988C11.7244 43.0822 11.3181 40.2738 11.3181 37.4305C11.3181 34.5873 11.7244 31.7789 12.4952 29.0546H30.325C30.0449 31.7279 29.8944 34.5329 29.8944 37.4305C29.8944 40.2857 30.0449 43.0941 30.3285 45.7988H12.4944ZM43.2445 5.99499C43.3306 5.98819 43.4168 5.99074 43.5012 5.98904C43.5873 5.98904 43.6717 5.98819 43.7717 5.99584C48.8386 6.32309 53.1538 15.2472 54.7285 27.3546H32.2747C33.8503 15.2472 38.1672 6.32309 43.2445 5.99499ZM73.9894 27.3555H56.4781C55.2235 17.6026 52.1899 9.85229 48.2731 6.34009C60.1634 8.04179 70.0936 16.0437 73.9894 27.3555ZM38.731 6.34434C34.8116 9.85994 31.7788 17.6077 30.5242 27.3555H13.0129C16.9035 16.0573 26.8172 8.06134 38.731 6.34434ZM13.0259 47.4996H30.526C31.1898 52.6795 32.3591 57.4098 33.9564 61.2339H32.647C31.1272 61.2339 29.8909 62.4418 29.8909 63.9276C29.8909 65.3921 31.095 66.5821 32.5861 66.6153V66.9952C23.3563 63.7516 16.1658 56.5844 13.0268 47.4996H13.0259ZM52.6753 72.9112C52.6753 74.7336 51.4878 76.3469 49.7191 76.9266L43.5012 78.9649L37.2824 76.9266C35.5137 76.3469 34.3261 74.7336 34.3261 72.9112V66.6212H52.6762V72.9112H52.6753ZM54.4153 66.9961V66.6153C55.9065 66.583 57.1114 65.393 57.1114 63.9276C57.1114 62.4418 55.8743 61.2339 54.3544 61.2339H53.0477C54.6459 57.4174 55.8143 52.6872 56.4781 47.4996H73.9842C70.8461 56.5827 63.6521 63.7499 54.4162 66.9952L54.4153 66.9961ZM21.6894 17.8465C21.3449 17.5193 21.337 16.9812 21.6711 16.6446C24.5299 13.7716 27.8995 11.5319 31.6883 9.98829C32.1303 9.80724 32.641 10.0121 32.8263 10.4456C33.0116 10.8791 32.8019 11.3763 32.3582 11.5574C28.7886 13.0117 25.6131 15.1223 22.9196 17.8287C22.7491 18.0004 22.522 18.0862 22.2958 18.0862C22.0774 18.0862 21.859 18.0072 21.6894 17.8465ZM16.9888 22.7723C17.6569 21.6103 18.4112 20.4832 19.2316 19.4224C19.5214 19.0476 20.066 18.9736 20.4496 19.2567C20.8333 19.5397 20.909 20.0727 20.6193 20.4467C19.8467 21.4463 19.1351 22.5088 18.5052 23.6044C18.3451 23.8824 18.0502 24.0379 17.7457 24.0379C17.6013 24.0379 17.4551 24.0031 17.3203 23.9291C16.9018 23.6988 16.7521 23.1811 16.9879 22.7714L16.9888 22.7723Z" fill="#37DD00"/>
</svg>
