<svg width="81" height="81" viewBox="0 0 81 81" fill="none" xmlns="http://www.w3.org/2000/svg">
<path d="M65.127 30.3751H55.207L63.127 23.8141C63.767 23.247 64.087 22.3561 63.847 21.465C63.607 20.5741 62.887 20.0071 62.007 19.845L48.327 17.8201L42.327 5.34605C41.927 4.53605 41.127 4.05005 40.327 4.05005C39.527 4.05005 38.727 4.53605 38.327 5.26505L32.247 17.8201L18.567 19.845C17.687 20.0071 16.967 20.5741 16.727 21.465C16.487 22.2751 16.727 23.247 17.447 23.8141L25.127 30.3751H15.447C14.247 30.3751 13.207 31.347 13.207 32.6431V46.4131C13.207 47.6281 14.167 48.681 15.447 48.681H17.287V74.7631C17.287 75.9781 18.247 77.0311 19.527 77.0311H61.127C62.327 77.0311 63.367 76.0591 63.367 74.7631V48.6001H65.127C66.327 48.6001 67.367 47.6281 67.367 46.3321V32.5621C67.367 31.3471 66.407 30.3751 65.127 30.3751ZM24.007 23.5711L34.007 22.1131C34.727 22.032 35.367 21.546 35.687 20.8981L40.327 11.34L44.967 20.8981C45.287 21.546 45.927 22.032 46.647 22.1131L56.487 23.5711L48.247 30.3751H32.007L24.007 23.5711ZM17.687 34.8301H62.967V44.1451H17.687V34.8301ZM42.087 48.6001V72.4951H38.567V48.6001H42.087ZM21.767 48.6001H34.167V72.4951H21.767V48.6001ZM58.887 72.4951H46.487V48.6001H58.887V72.4951Z" fill="#37DD00"/>
</svg>
