<svg width="41" height="46" viewBox="0 0 41 46" fill="none" xmlns="http://www.w3.org/2000/svg">
<g clip-path="url(#clip0_63_15)">
<path d="M30.5517 14.8001L29.2993 13.6317L28.7161 15.3621C28.7049 15.3951 27.5847 18.6527 25.8643 18.0592C25.4834 17.9278 25.2279 17.6744 25.0604 17.2614C24.6331 16.209 24.8149 14.304 25.5233 12.4083C26.5029 9.78693 26.0739 7.04017 24.2828 4.46476C23.0229 2.65327 21.5091 1.55661 21.4453 1.51076L19.6111 0.194824L19.652 2.6806C19.6527 2.72501 19.6922 7.14131 16.8488 8.76076C15.1067 9.75295 13.8596 11.394 13.3371 13.3816C12.8484 15.241 13.0536 17.274 13.9002 18.9593C14.2468 19.6491 14.3518 20.2342 14.2125 20.6983C14.0134 21.3614 13.3701 21.7027 13.1776 21.7915C11.1448 22.7304 9.81418 19.596 9.76039 19.4666L8.83312 17.1906L7.6968 19.3376C6.23753 22.0946 5.46631 25.2674 5.46631 28.5131C5.46631 38.1919 12.2646 46.0779 20.6586 46.1922C20.7198 46.194 20.7813 46.1949 20.843 46.1949H20.8431H20.8433C29.3222 46.1949 36.2202 38.2628 36.2202 28.5131C36.2202 23.1742 34.1542 18.176 30.5517 14.8001ZM16.0341 37.9678L16.034 37.9512C16.0225 36.8778 16.2003 35.7268 16.5637 34.5174L19.454 35.4889L19.4832 33.7252C19.5277 31.024 20.8523 29.3658 21.9113 28.4688C22.1828 29.8274 22.6061 31.0389 23.1907 32.1377C23.8574 33.3885 24.4887 34.4489 25.0709 35.4073C25.445 36.0243 25.6572 36.9558 25.653 37.9628V37.9693C25.653 39.4459 25.1526 40.8344 24.2441 41.8792C23.3365 42.9229 22.1286 43.4978 20.8431 43.4978C20.8429 43.4978 20.8428 43.4978 20.8427 43.4978C18.1921 43.4975 16.035 41.0178 16.0341 37.9678ZM27.2976 41.527C27.7554 40.4313 27.998 39.2233 27.9983 37.9721C28.0043 36.4004 27.648 34.9417 26.9941 33.8634C26.3447 32.7944 25.7895 31.8521 25.1908 30.7289C24.5234 29.4746 24.1221 27.9964 23.9641 26.2099L23.8095 24.4637L22.3821 25.0853C22.2483 25.1436 21.0391 25.6919 19.7998 26.9848C18.4854 28.3558 17.6371 30.0513 17.3007 31.9551L15.2045 31.2505L14.7907 32.3358C14.0416 34.3005 13.6709 36.1981 13.6888 37.9762C13.6899 39.2488 13.9436 40.4547 14.3953 41.531C10.4658 38.9475 7.81157 34.0801 7.81157 28.5129C7.81157 26.4877 8.16556 24.4964 8.84532 22.6554C8.94953 22.788 9.06038 22.9203 9.17789 23.0505C10.6143 24.6405 12.3451 25.0822 14.0513 24.2944C15.204 23.7623 16.0707 22.7724 16.4292 21.5787C16.6845 20.7289 16.8052 19.3505 15.9309 17.61C15.3995 16.5522 15.2756 15.3276 15.582 14.1619C15.915 12.8953 16.7344 11.8355 17.8896 11.1776C20.3206 9.79296 21.3144 7.19363 21.7197 5.22185C21.9755 5.51116 22.2384 5.83886 22.4854 6.1992C23.6904 7.95612 23.9875 9.68687 23.3684 11.3435C22.3784 13.9929 22.2163 16.6317 22.935 18.4023C23.3865 19.5148 24.1664 20.2894 25.1902 20.6427C26.7996 21.198 28.3736 20.5516 29.6224 18.8227C29.8179 18.5521 29.9905 18.2765 30.1408 18.0118C32.5293 20.803 33.8748 24.5471 33.8748 28.5129C33.8749 34.0772 31.2236 38.9424 27.2976 41.527Z" fill="#37DD00"/>
</g>
<defs>
<clipPath id="clip0_63_15">
<rect width="40" height="46" fill="white" transform="translate(0.843262 0.194824)"/>
</clipPath>
</defs>
</svg>
