<svg width="44" height="45" viewBox="0 0 44 45" fill="none" xmlns="http://www.w3.org/2000/svg">
<path d="M40.2523 20.0742C40.2523 18.8789 40.1423 17.6766 39.9223 16.5023C38.2655 7.75547 30.7305 1.40625 21.9992 1.40625C17.3655 1.40625 13.1236 3.18516 9.90609 6.10313C9.90151 6.10781 9.89693 6.1125 9.89234 6.11719C6.12484 9.54141 3.74609 14.5266 3.74609 20.0742C3.74609 21.3117 3.86984 22.5633 4.10359 23.8078C4.11047 23.85 4.11734 23.8922 4.13109 23.9344C5.18297 29.0391 8.29047 33.4617 12.6767 36.1125C12.6698 36.1688 12.6698 36.225 12.6698 36.2812V42.8906C12.6698 43.2773 12.9792 43.5938 13.3573 43.5938H30.6411C31.0192 43.5938 31.3286 43.2773 31.3286 42.8906V36.2812C31.3286 36.232 31.3286 36.1758 31.3217 36.1266C36.8423 32.7727 40.2523 26.6555 40.2523 20.0742ZM10.188 7.7625C10.9098 9.00703 11.8655 10.0898 12.993 10.9195C14.8286 12.2836 17.0973 13.0078 19.373 12.9586C19.5105 12.9516 19.6411 12.9516 19.7717 12.9445C20.3836 12.9164 20.9542 12.8883 21.4011 13.1062C21.8273 13.3031 22.1642 13.7461 22.5217 14.2102C22.6661 14.3859 22.8036 14.5687 22.948 14.7375C23.498 15.3773 24.3161 15.9539 25.1823 15.9539C25.423 15.9539 25.6705 15.9117 25.918 15.8062C26.9905 15.3633 27.4855 14.0414 27.2173 12.368L27.1898 12.1922C27.0592 11.3484 26.9217 10.4695 27.3273 9.99844C27.8911 9.3375 29.2042 9.77344 29.7405 9.99141L29.8848 10.0477C30.9642 10.5047 32.3117 11.0672 33.5561 10.4625C34.1473 10.1812 34.6148 9.675 34.9311 8.97891C36.6567 11.0742 37.908 13.5984 38.4992 16.4039C38.3892 16.5164 38.2792 16.6219 38.1692 16.7344C37.6948 17.1844 37.2067 17.6484 36.8492 18.1969C36.7805 18.3023 36.7255 18.4078 36.6705 18.4992C36.5261 18.7453 36.478 18.8297 36.2923 18.9211C35.9142 19.1109 35.4192 19.1672 34.9448 19.2023C34.0648 19.2586 32.738 19.35 31.9955 20.3836C31.3423 21.3047 31.4386 22.6406 32.243 23.9484C32.3873 24.1945 32.5523 24.4336 32.7242 24.6727C32.9236 24.9609 33.1161 25.2422 33.2605 25.5164C33.618 26.2125 33.7348 26.768 33.2055 27.4008C32.7448 27.9492 32.6692 28.6805 32.6005 29.3203C32.5248 30.0727 32.4492 30.5508 32.0986 30.7547C31.2392 31.2609 30.6823 31.8305 30.3111 32.4C29.2592 30.5648 27.5267 29.25 25.4917 28.7789C26.7773 27.7242 27.5886 26.1 27.5886 24.3141C27.5886 21.1641 25.0861 18.5977 21.9992 18.5977C18.9123 18.5977 16.4098 21.1641 16.4098 24.3141C16.4098 26.107 17.2211 27.7313 18.5067 28.7789C16.8911 29.1516 15.4473 30.0656 14.3886 31.3945C14.3886 31.3875 14.3817 31.3805 14.3748 31.3734C13.9898 30.9023 13.6667 30.4945 13.598 30.0375C13.5911 29.9672 13.6186 29.7352 13.6461 29.5734C13.7423 28.8773 13.8867 27.8227 13.3505 26.8383C13.048 26.2828 12.5117 26.0719 12.0855 25.9102C11.8586 25.8258 11.5973 25.7273 11.5217 25.6148C11.3636 25.3828 11.508 24.8906 11.6523 24.4195C11.7005 24.2648 11.7486 24.1031 11.7898 23.9484C12.1198 22.5984 11.8036 21.1008 10.9648 20.0461C10.4011 19.3219 9.49359 18.457 8.35922 18.457H8.34547C6.74359 18.457 6.50297 20.5242 6.39297 21.5227C6.37234 21.6703 6.35859 21.8039 6.34484 21.9023C6.24859 22.4297 5.84984 22.8375 5.34797 22.9289C5.19672 21.9797 5.12109 21.0164 5.12109 20.0742C5.12109 15.2578 7.05984 10.8914 10.188 7.7625ZM22.6386 28.582C22.6386 28.582 22.6324 28.5827 22.6297 28.5834H21.3832C21.3832 28.5834 21.3763 28.582 21.3736 28.582C19.3248 28.2797 17.7848 26.4516 17.7848 24.3141C17.7848 21.9375 19.6755 20.0039 21.9992 20.0039C24.323 20.0039 26.2136 21.9375 26.2136 24.3141C26.2136 26.4375 24.6942 28.2586 22.6386 28.582ZM29.9536 42.1875H14.0448V36.2812C14.0448 36.1195 14.0517 35.9648 14.0655 35.7961V35.7891C14.0655 35.768 14.0655 35.7539 14.0723 35.7328C14.1617 34.7414 14.4711 33.7781 14.9867 32.9414C16.1211 31.0922 18.0667 29.9883 20.2048 29.9883H21.2705C21.3805 30.0094 21.4973 30.0234 21.6211 30.0305C21.7448 30.0375 21.8686 30.0445 21.9992 30.0445H22.068C22.0725 30.0398 22.0771 30.0375 22.0817 30.0375H22.1573C22.1986 30.0375 22.2398 30.0375 22.2742 30.0305H22.3086C22.3132 30.0352 22.3178 30.0352 22.3223 30.0305C22.3269 30.0352 22.3315 30.0352 22.3361 30.0305H22.3498C22.3636 30.0305 22.3773 30.0305 22.3911 30.0234C22.4873 30.0164 22.5767 30.0094 22.6592 29.9953C22.6867 29.9953 22.7142 29.9953 22.7348 29.9883H23.7936C26.5161 29.9883 28.8742 31.7672 29.6717 34.418C29.6786 34.4391 29.6855 34.4602 29.6855 34.4813C29.8092 34.868 29.8917 35.2828 29.9261 35.7328C29.933 35.7539 29.933 35.775 29.933 35.7961C29.9467 35.9578 29.9536 36.1195 29.9536 36.2812V42.1875Z" fill="#37DD00"/>
</svg>
