<svg width="34" height="32" viewBox="0 0 34 32" fill="none" xmlns="http://www.w3.org/2000/svg">
<g clip-path="url(#clip0_322_1672)">
<path d="M16.8461 32.0089C25.9289 32.0089 33.2919 24.8449 33.2919 16.0076C33.2919 7.17036 25.9289 0.00634766 16.8461 0.00634766C7.7634 0.00634766 0.400391 7.17036 0.400391 16.0076C0.400391 24.8449 7.7634 32.0089 16.8461 32.0089Z" fill="#222221"/>
<path d="M7.92628 15.6609L23.7827 9.71245C24.5187 9.45376 25.1614 9.88713 24.923 10.9699L24.9243 10.9686L22.2245 23.3442C22.0244 24.2216 21.4885 24.4349 20.7389 24.0216L16.6274 21.0733L14.6444 22.9322C14.4251 23.1455 14.2401 23.3255 13.8152 23.3255L14.1071 19.2545L21.727 12.5567C22.0587 12.2727 21.653 12.1126 21.2158 12.3953L11.7993 18.1638L7.73989 16.9317C6.85868 16.6597 6.83949 16.0743 7.92628 15.6609Z" fill="white"/>
</g>
<defs>
<clipPath id="clip0_322_1672">
<rect width="32.8915" height="32.0025" fill="white" transform="translate(0.400391 0.00634766)"/>
</clipPath>
</defs>
</svg>
