<svg width="42" height="43" viewBox="0 0 42 43" fill="none" xmlns="http://www.w3.org/2000/svg">
<path d="M37.3935 20.312H36.75V16.76C36.7492 16.111 36.491 15.4888 36.0321 15.0299C35.5732 14.571 34.951 14.3128 34.302 14.312H32.25V10.76C32.2492 10.111 31.991 9.48884 31.5321 9.02992C31.0732 8.571 30.451 8.31283 29.802 8.31204H25.725C25.1073 6.55759 23.9602 5.03809 22.4422 3.96323C20.9242 2.88836 19.11 2.3111 17.25 2.3111C15.39 2.3111 13.5758 2.88836 12.0578 3.96323C10.5398 5.03809 9.39274 6.55759 8.775 8.31204H6C5.00544 8.31204 4.05161 8.70713 3.34835 9.41039C2.64509 10.1136 2.25 11.0675 2.25 12.062V36.062C2.25 37.0566 2.64509 38.0104 3.34835 38.7137C4.05161 39.417 5.00544 39.812 6 39.812H34.302C34.951 39.8112 35.5732 39.5531 36.0321 39.0942C36.491 38.6352 36.7492 38.013 36.75 37.364V33.812H37.3935C38.0185 33.8112 38.6176 33.5625 39.0594 33.1204C39.5013 32.6783 39.7496 32.079 39.75 31.454V22.67C39.7496 22.045 39.5013 21.4457 39.0594 21.0037C38.6176 20.5616 38.0185 20.3128 37.3935 20.312ZM29.802 9.81204C29.9265 9.81204 30.0498 9.83656 30.1648 9.8842C30.2798 9.93184 30.3843 10.0017 30.4723 10.0897C30.5604 10.1777 30.6302 10.2822 30.6778 10.3973C30.7255 10.5123 30.75 10.6355 30.75 10.76V14.312H25.7325C26.076 13.3492 26.251 12.3343 26.25 11.312C26.247 10.8091 26.2018 10.3074 26.115 9.81204H29.802ZM17.25 3.81204C19.2384 3.81442 21.1447 4.60536 22.5507 6.01137C23.9567 7.41738 24.7476 9.32365 24.75 11.312C24.7486 12.3455 24.5314 13.3673 24.1125 14.312H18V8.42454L19.719 10.145C19.7886 10.2148 19.8713 10.2701 19.9623 10.3079C20.0534 10.3457 20.1509 10.3651 20.2495 10.3652C20.348 10.3653 20.4456 10.3459 20.5367 10.3083C20.6278 10.2706 20.7105 10.2154 20.7803 10.1458C20.85 10.0762 20.9053 9.99347 20.9431 9.90245C20.9809 9.81143 21.0003 9.71387 21.0004 9.61532C21.0005 9.51677 20.9811 9.41918 20.9435 9.32811C20.9058 9.23704 20.8506 9.15427 20.781 9.08454L17.781 6.08454C17.7113 6.01469 17.6286 5.95928 17.5374 5.92147C17.4463 5.88366 17.3487 5.8642 17.25 5.8642C17.1513 5.8642 17.0537 5.88366 16.9626 5.92147C16.8714 5.95928 16.7887 6.01469 16.719 6.08454L13.719 9.08454C13.5784 9.22537 13.4994 9.4163 13.4996 9.61532C13.4997 9.71387 13.5191 9.81143 13.5569 9.90245C13.5947 9.99347 13.65 10.0762 13.7197 10.1458C13.7895 10.2154 13.8722 10.2706 13.9633 10.3083C14.0544 10.3459 14.152 10.3653 14.2505 10.3652C14.4496 10.3651 14.6404 10.2859 14.781 10.145L16.5 8.42454V14.312H10.3875C9.96803 13.3675 9.75087 12.3456 9.75 11.312C9.75238 9.32365 10.5433 7.41738 11.9493 6.01137C13.3553 4.60536 15.2616 3.81442 17.25 3.81204ZM6 9.81204H8.385C8.11721 11.3197 8.24909 12.8712 8.7675 14.312H6C5.40326 14.312 4.83097 14.075 4.40901 13.653C3.98705 13.2311 3.75 12.6588 3.75 12.062C3.75 11.4653 3.98705 10.893 4.40901 10.471C4.83097 10.0491 5.40326 9.81204 6 9.81204ZM35.25 37.364C35.25 37.6155 35.1501 37.8566 34.9723 38.0344C34.7946 38.2122 34.5534 38.312 34.302 38.312H6C5.40326 38.312 4.83097 38.075 4.40901 37.653C3.98705 37.2311 3.75 36.6588 3.75 36.062V15.0425C4.39513 15.5392 5.18584 15.8096 6 15.812H34.302C34.5534 15.812 34.7946 15.9119 34.9723 16.0897C35.1501 16.2675 35.25 16.5086 35.25 16.76V20.312H28.5C26.7098 20.312 24.9929 21.0232 23.727 22.2891C22.4612 23.5549 21.75 25.2718 21.75 27.062C21.75 28.8522 22.4612 30.5691 23.727 31.835C24.9929 33.1009 26.7098 33.812 28.5 33.812H35.25V37.364ZM38.25 31.454C38.25 31.6813 38.1598 31.8993 37.9992 32.0602C37.8386 32.2211 37.6208 32.3116 37.3935 32.312H28.5C27.1076 32.312 25.7723 31.7589 24.7877 30.7743C23.8031 29.7898 23.25 28.4544 23.25 27.062C23.25 25.6697 23.8031 24.3343 24.7877 23.3497C25.7723 22.3652 27.1076 21.812 28.5 21.812H37.3935C37.6208 21.8124 37.8386 21.903 37.9992 22.0639C38.1598 22.2247 38.25 22.4427 38.25 22.67V31.454Z" fill="#37DD00"/>
<path d="M28.5 24.812C28.055 24.812 27.62 24.944 27.25 25.1912C26.88 25.4385 26.5916 25.7899 26.4213 26.201C26.251 26.6121 26.2064 27.0645 26.2932 27.501C26.3801 27.9375 26.5943 28.3384 26.909 28.653C27.2237 28.9677 27.6246 29.182 28.061 29.2688C28.4975 29.3556 28.9499 29.3111 29.361 29.1408C29.7722 28.9705 30.1236 28.6821 30.3708 28.3121C30.618 27.9421 30.75 27.5071 30.75 27.062C30.75 26.4653 30.5129 25.893 30.091 25.4711C29.669 25.0491 29.0967 24.812 28.5 24.812ZM28.5 27.812C28.3517 27.812 28.2067 27.7681 28.0833 27.6856C27.96 27.6032 27.8639 27.4861 27.8071 27.3491C27.7503 27.212 27.7355 27.0612 27.7644 26.9157C27.7934 26.7702 27.8648 26.6366 27.9697 26.5317C28.0746 26.4268 28.2082 26.3554 28.3537 26.3265C28.4992 26.2975 28.65 26.3124 28.787 26.3691C28.9241 26.4259 29.0412 26.522 29.1236 26.6454C29.206 26.7687 29.25 26.9137 29.25 27.062C29.25 27.261 29.171 27.4517 29.0303 27.5924C28.8897 27.733 28.6989 27.812 28.5 27.812Z" fill="#37DD00"/>
<path d="M16.011 33.764H8.51099C8.31207 33.764 8.12131 33.8431 7.98066 33.9837C7.84 34.1244 7.76099 34.3151 7.76099 34.514C7.76099 34.713 7.84 34.9037 7.98066 35.0444C8.12131 35.185 8.31207 35.264 8.51099 35.264H16.011C16.2099 35.264 16.4007 35.185 16.5413 35.0444C16.682 34.9037 16.761 34.713 16.761 34.514C16.761 34.3151 16.682 34.1244 16.5413 33.9837C16.4007 33.8431 16.2099 33.764 16.011 33.764Z" fill="#37DD00"/>
</svg>
