<svg width="39" height="37" viewBox="0 0 39 37" fill="none" xmlns="http://www.w3.org/2000/svg">
<path fill-rule="evenodd" clip-rule="evenodd" d="M0.21875 4.31204C0.21875 2.03387 2.10755 0.187042 4.4375 0.187042H32.5625C34.8926 0.187042 36.7812 2.03389 36.7812 4.31204V18.062C36.7812 18.8214 36.1516 19.437 35.375 19.437C34.5984 19.437 33.9688 18.8214 33.9688 18.062V4.31204C33.9688 3.55264 33.3391 2.93704 32.5625 2.93704H4.4375C3.66086 2.93704 3.03125 3.55266 3.03125 4.31204V31.812C3.03125 32.5714 3.66084 33.187 4.4375 33.187H18.5C19.2766 33.187 19.9062 33.8027 19.9062 34.562C19.9062 35.3214 19.2766 35.937 18.5 35.937H4.4375C2.10757 35.937 0.21875 34.0903 0.21875 31.812V4.31204Z" fill="#37DD00"/>
<path fill-rule="evenodd" clip-rule="evenodd" d="M32.6101 24.937C33.3867 24.937 34.0164 25.5527 34.0164 26.312V35.4787C34.0164 36.2381 33.3867 36.8537 32.6101 36.8537C31.8335 36.8537 31.2039 36.2381 31.2039 35.4787V26.312C31.2039 25.5527 31.8335 24.937 32.6101 24.937Z" fill="#37DD00"/>
<path fill-rule="evenodd" clip-rule="evenodd" d="M26.4688 30.8494C26.4688 30.0898 27.0984 29.4744 27.875 29.4744H37.25C38.0266 29.4744 38.6562 30.0898 38.6562 30.8494C38.6562 31.6087 38.0266 32.2244 37.25 32.2244H27.875C27.0984 32.2244 26.4688 31.6087 26.4688 30.8494Z" fill="#37DD00"/>
<path fill-rule="evenodd" clip-rule="evenodd" d="M18.5 9.3537C16.6878 9.3537 15.2187 10.7901 15.2187 12.562C15.2187 14.3339 16.6878 15.7704 18.5 15.7704C20.3122 15.7704 21.7812 14.3339 21.7812 12.562C21.7812 10.7901 20.3122 9.3537 18.5 9.3537ZM12.4062 12.562C12.4062 9.27133 15.1346 6.6037 18.5 6.6037C21.8654 6.6037 24.5937 9.27133 24.5937 12.562C24.5937 15.8527 21.8654 18.5204 18.5 18.5204C15.1346 18.5204 12.4062 15.8527 12.4062 12.562Z" fill="#37DD00"/>
<path fill-rule="evenodd" clip-rule="evenodd" d="M8.65625 24.4787C8.65625 19.5214 13.2237 15.7704 18.5 15.7704C23.7762 15.7704 28.3438 19.5214 28.3438 24.4787C28.3438 25.2381 27.7141 25.8537 26.9375 25.8537C26.1609 25.8537 25.5312 25.2381 25.5312 24.4787C25.5312 21.3358 22.5436 18.5204 18.5 18.5204C14.4564 18.5204 11.4688 21.3358 11.4688 24.4787C11.4688 25.2381 10.8391 25.8537 10.0625 25.8537C9.28586 25.8537 8.65625 25.2381 8.65625 24.4787Z" fill="#37DD00"/>
</svg>
