<svg width="43" height="43" viewBox="0 0 43 43" fill="none" xmlns="http://www.w3.org/2000/svg">
<g clip-path="url(#clip0_15_124)">
<path d="M30.1448 38.3608C26.0406 40.3116 21.3705 40.8105 16.9317 39.7723C12.4928 38.7341 8.5605 36.2233 5.80604 32.6685C3.05157 29.1136 1.64573 24.7351 1.82853 20.2806C2.01133 15.826 3.77143 11.5714 6.80834 8.24331L6.27084 10.9646C6.22333 11.1966 6.27214 11.4376 6.40654 11.6345C6.54094 11.8315 6.74992 11.9681 6.98751 12.0146C7.2251 12.061 7.47184 12.0133 7.67344 11.882C7.87504 11.7507 8.01499 11.5466 8.06251 11.3146C8.83293 7.55206 9.20022 5.70581 9.19126 5.79331C9.21365 5.66661 9.20718 5.53664 9.17231 5.41265C9.13743 5.28866 9.075 5.17371 8.98947 5.07596C8.90394 4.97822 8.79741 4.90009 8.67745 4.84713C8.55749 4.79417 8.42706 4.76769 8.29543 4.76956L2.56209 4.90081C2.3245 4.90081 2.09665 4.993 1.92864 5.15709C1.76064 5.32119 1.66626 5.54375 1.66626 5.77581C1.66626 6.00788 1.76064 6.23044 1.92864 6.39453C2.09665 6.55863 2.3245 6.65081 2.56209 6.65081L5.97522 6.57206C2.50819 10.1372 0.431897 14.7776 0.108203 19.6845C-0.215491 24.5914 1.23394 29.4537 4.20389 33.4239C7.17383 37.3941 11.476 40.2205 16.3605 41.4105C21.245 42.6005 26.4021 42.0786 30.9331 39.9358C31.147 39.8337 31.3105 39.6528 31.3878 39.4329C31.4651 39.213 31.4498 38.9722 31.3452 38.7633C31.2407 38.5545 31.0555 38.3947 30.8304 38.3192C30.6052 38.2437 30.3586 38.2587 30.1448 38.3608Z" fill="#37DD00"/>
<path d="M40.4559 35.4733L37.0427 35.552C50.1667 22.2258 40.3125 0.062047 21.5 0.062047C18.2305 0.0561723 15.0032 0.78361 12.0669 2.1883C11.9601 2.23791 11.8644 2.30769 11.7854 2.3936C11.7063 2.47952 11.6455 2.57987 11.6063 2.68888C11.5672 2.79788 11.5505 2.91338 11.5573 3.0287C11.5641 3.14402 11.5942 3.25689 11.6459 3.3608C12.5417 5.03205 14.3334 1.81205 21.5 1.81205C38.3954 1.81205 47.5688 21.4733 36.1917 33.8808L36.7292 31.1595C36.7767 30.9275 36.7279 30.6865 36.5935 30.4896C36.4591 30.2927 36.2501 30.156 36.0125 30.1095C35.7749 30.0631 35.5282 30.1108 35.3266 30.2421C35.125 30.3734 34.985 30.5775 34.9375 30.8095C33.7102 36.8033 33.764 36.4533 33.8267 36.7071C34.0686 37.5821 34.4269 37.3633 40.4469 37.2233C40.5645 37.2239 40.6811 37.2018 40.7901 37.1584C40.899 37.1149 40.9981 37.051 41.0817 36.9701C41.1653 36.8893 41.2317 36.7931 41.2773 36.6872C41.3229 36.5812 41.3466 36.4676 41.3472 36.3527C41.3478 36.2378 41.3252 36.1239 41.2807 36.0175C41.2363 35.9111 41.1708 35.8143 41.088 35.7327C41.0052 35.651 40.9068 35.5861 40.7983 35.5416C40.6899 35.4971 40.5735 35.4739 40.4559 35.4733Z" fill="#37DD00"/>
<path d="M15.2292 19.312H18.8125C19.0501 19.312 19.278 19.2199 19.446 19.0558C19.614 18.8917 19.7084 18.6691 19.7084 18.437C19.7084 18.205 19.614 17.9824 19.446 17.8183C19.278 17.6542 19.0501 17.562 18.8125 17.562H17.0209V16.687C17.0209 16.455 16.9265 16.2324 16.7585 16.0683C16.5905 15.9042 16.3626 15.812 16.125 15.812C15.8874 15.812 15.6596 15.9042 15.4916 16.0683C15.3236 16.2324 15.2292 16.455 15.2292 16.687V17.562C14.5164 17.562 13.8328 17.8386 13.3288 18.3309C12.8248 18.8232 12.5417 19.4908 12.5417 20.187C12.5417 20.8832 12.8248 21.5509 13.3288 22.0432C13.8328 22.5355 14.5164 22.812 15.2292 22.812H17.0209C17.2584 22.812 17.4863 22.9042 17.6543 23.0683C17.8223 23.2324 17.9167 23.455 17.9167 23.687C17.9167 23.9191 17.8223 24.1417 17.6543 24.3058C17.4863 24.4699 17.2584 24.562 17.0209 24.562H13.4375C13.1999 24.562 12.9721 24.6542 12.8041 24.8183C12.6361 24.9824 12.5417 25.205 12.5417 25.437C12.5417 25.6691 12.6361 25.8917 12.8041 26.0558C12.9721 26.2199 13.1999 26.312 13.4375 26.312H15.2292V27.187C15.2292 27.4191 15.3236 27.6417 15.4916 27.8058C15.6596 27.9699 15.8874 28.062 16.125 28.062C16.3626 28.062 16.5905 27.9699 16.7585 27.8058C16.9265 27.6417 17.0209 27.4191 17.0209 27.187V26.312C17.7336 26.312 18.4172 26.0355 18.9212 25.5432C19.4252 25.0509 19.7084 24.3832 19.7084 23.687C19.7084 22.9908 19.4252 22.3232 18.9212 21.8309C18.4172 21.3386 17.7336 21.062 17.0209 21.062H15.2292C14.9916 21.062 14.7637 20.9699 14.5957 20.8058C14.4277 20.6417 14.3334 20.4191 14.3334 20.187C14.3334 19.955 14.4277 19.7324 14.5957 19.5683C14.7637 19.4042 14.9916 19.312 15.2292 19.312Z" fill="#37DD00"/>
<path d="M30.9063 8.81204H21.0521C20.4581 8.81204 19.8885 9.04251 19.4685 9.45275C19.0485 9.86298 18.8125 10.4194 18.8125 10.9995V12.6883C17.3145 12.2685 15.7359 12.2017 14.2064 12.4934C12.6768 12.7851 11.2399 13.427 10.0136 14.3664C8.78732 15.3058 7.80663 16.5159 7.15204 17.8973C6.49746 19.2787 6.18766 20.7921 6.24807 22.3131C6.30848 23.8342 6.73738 25.3195 7.49957 26.6473C8.26175 27.975 9.33547 29.1072 10.6326 29.951C11.9297 30.7948 13.4132 31.326 14.9613 31.5011C16.5094 31.6762 18.0779 31.4902 19.5381 30.9583C20.434 31.772 20.2011 31.562 30.9063 31.562C31.5002 31.562 32.0699 31.3316 32.4899 30.9213C32.9099 30.5111 33.1458 29.9547 33.1458 29.3745C33.1458 26.4083 33.2444 26.1545 32.689 25.437C33.2623 24.6933 33.1458 24.3345 33.1458 21.4995C33.1413 21.0255 32.9812 20.5655 32.689 20.187C32.9812 19.8086 33.1413 19.3485 33.1458 18.8745C33.1458 15.9083 33.2444 15.6545 32.689 14.937C33.2623 14.1933 33.1458 13.8345 33.1458 10.9995C33.1435 10.4201 32.9068 9.86503 32.4873 9.45529C32.0678 9.04555 31.4995 8.81435 30.9063 8.81204ZM20.6042 10.9995C20.6065 10.8842 20.6544 10.7742 20.7379 10.6927C20.8214 10.6111 20.934 10.5643 21.0521 10.562H30.9063C31.4975 10.562 31.3542 11.0258 31.3542 13.6245C31.3519 13.7399 31.304 13.8499 31.2204 13.9314C31.1369 14.013 31.0243 14.0598 30.9063 14.062C19.9144 14.062 22.4317 14.2895 20.6042 13.3708V10.9995ZM31.3542 16.2495V18.8745C31.3519 18.9899 31.304 19.0999 31.2204 19.1814C31.1369 19.263 31.0243 19.3098 30.9063 19.312H25.594C25.2242 18.0315 24.5867 16.8398 23.7217 15.812H30.8883C30.9483 15.8109 31.008 15.8213 31.0639 15.8426C31.1198 15.864 31.1708 15.8959 31.2141 15.9365C31.2573 15.9772 31.292 16.0257 31.316 16.0794C31.34 16.1331 31.353 16.1909 31.3542 16.2495ZM31.3542 21.4995V24.1245C31.3519 24.2399 31.304 24.3499 31.2204 24.4314C31.1369 24.513 31.0243 24.5598 30.9063 24.562H25.594C25.9524 23.4306 26.0832 22.2421 25.9792 21.062H30.9063C31.0243 21.0643 31.1369 21.1111 31.2204 21.1927C31.304 21.2742 31.3519 21.3842 31.3542 21.4995ZM8.06251 21.937C8.06251 20.3795 8.53537 18.857 9.42129 17.5619C10.3072 16.2669 11.5664 15.2575 13.0396 14.6615C14.5129 14.0655 16.134 13.9095 17.6979 14.2134C19.2619 14.5172 20.6985 15.2672 21.8261 16.3686C22.9536 17.4699 23.7215 18.8731 24.0326 20.4007C24.3437 21.9283 24.184 23.5117 23.5738 24.9507C22.9636 26.3896 21.9302 27.6195 20.6043 28.4849C19.2784 29.3502 17.7196 29.812 16.125 29.812C13.9867 29.812 11.936 28.9824 10.424 27.5055C8.91195 26.0287 8.06251 24.0256 8.06251 21.937ZM31.3542 29.3745C31.3519 29.4899 31.304 29.5999 31.2204 29.6814C31.1369 29.763 31.0243 29.8098 30.9063 29.812H21.7688C23.0849 28.909 24.1576 27.7081 24.8952 26.312H30.9063C31.0243 26.3143 31.1369 26.3611 31.2204 26.4427C31.304 26.5242 31.3519 26.6342 31.3542 26.7495V29.3745Z" fill="#37DD00"/>
</g>
<defs>
<clipPath id="clip0_15_124">
<rect width="43" height="42" fill="white" transform="translate(0 0.0620422)"/>
</clipPath>
</defs>
</svg>
