<svg width="44" height="44" viewBox="0 0 44 44" fill="none" xmlns="http://www.w3.org/2000/svg">
<path d="M23.4526 42.7149C17.6496 42.7149 12.5456 39.6663 9.6583 35.0859L4.15537 40.3011C3.97878 40.4677 3.70041 40.4603 3.53321 40.284C3.36601 40.1072 3.37364 39.8291 3.54993 39.6619L9.19806 34.3091C7.89801 31.9698 7.15705 29.2788 7.15705 26.4182C7.15705 17.4117 14.4672 10.0845 23.4529 10.0845C29.495 10.0845 34.7805 13.3822 37.6056 18.2726L42.1174 13.2575H39.3451C39.1025 13.2575 38.9051 13.0607 38.9051 12.8175C38.9051 12.5743 39.1025 12.3775 39.3451 12.3775H43.0913C43.3341 12.3775 43.5313 12.5743 43.5313 12.8175V16.9438C43.5313 17.187 43.3341 17.3838 43.0913 17.3838C42.8484 17.3838 42.6513 17.187 42.6513 16.9438V13.9803L38.0497 19.0954C39.1597 21.2992 39.7848 23.7873 39.7848 26.4182C39.7845 35.4039 32.4582 42.7149 23.4526 42.7149ZM10.3095 34.4684C13.0237 38.8846 17.8998 41.8349 23.452 41.8349C31.9725 41.8349 38.9048 34.9193 38.9048 26.4182C38.9048 24.0516 38.3704 21.8079 37.415 19.8003L34.0936 23.4925V33.4095C34.0936 33.6524 33.8964 33.8495 33.6536 33.8495H30.4814C30.2386 33.8495 30.0415 33.6524 30.0415 33.4095V27.9972L27.9412 30.3318V33.4095C27.9412 33.6524 27.7441 33.8495 27.5012 33.8495H24.332C24.0891 33.8495 23.892 33.6524 23.892 33.4095V27.5273L22.6694 26.4343V33.4101C22.6694 33.653 22.4729 33.8501 22.2294 33.8501H19.0585C18.8153 33.8501 18.6185 33.653 18.6185 33.4101V26.5942L16.9004 28.2225V33.4104C16.9004 33.6532 16.7036 33.8504 16.4604 33.8504H13.2895C13.0463 33.8504 12.8495 33.6532 12.8495 33.4104V32.0613L10.3095 34.4684ZM23.4526 10.9651C14.9521 10.9651 8.03676 17.8974 8.03676 26.4185C8.03676 29.0441 8.69617 31.5175 9.85836 33.684L20.3603 23.7307C20.5263 23.5734 20.7859 23.5696 20.956 23.7224L27.4672 29.5428L36.9841 18.9631C34.3493 14.1988 29.2709 10.9651 23.4526 10.9651ZM30.9209 32.9695H33.2127V24.471L30.9209 27.0195V32.9695ZM19.4985 32.9695H21.7894V25.6479L20.6718 24.6488L19.4985 25.7602V32.9695ZM12.8495 28.9787V20.306C12.8495 20.0628 13.0463 19.866 13.2895 19.866H16.4604C16.7036 19.866 16.9004 20.0628 16.9004 20.306V25.9603C16.9004 26.0808 16.8511 26.1961 16.7637 26.2788L13.5928 29.2972C13.2965 29.5809 12.8495 29.2855 12.8495 28.9787ZM13.7295 20.746V27.9523L16.0204 25.7714V20.746H13.7295ZM27.5006 28.5407C27.395 28.5407 27.2903 28.5023 27.2078 28.429L24.0384 25.6012C23.9454 25.5179 23.8917 25.3988 23.8917 25.2733V23.1331C23.8917 22.89 24.0888 22.6931 24.3317 22.6931H27.5006C27.7435 22.6931 27.9406 22.89 27.9406 23.1331V28.1007C27.9406 28.2741 27.8385 28.4313 27.6804 28.5023C27.6232 28.5281 27.5619 28.5407 27.5006 28.5407ZM24.772 25.0759L27.0615 27.1184V23.5731H24.772V25.0759ZM30.0409 24.7758V16.5243C30.0409 16.2812 30.238 16.0843 30.4809 16.0843H33.6527C33.8956 16.0843 34.0927 16.2812 34.0927 16.5243V21.2614C34.0927 21.3702 34.0522 21.4752 33.9792 21.5562L30.8076 25.0706C30.5838 25.3188 30.0409 25.2296 30.0409 24.7758ZM18.6185 23.4766V17.2116C18.6185 16.9684 18.8153 16.7716 19.0585 16.7716H22.2294C22.4729 16.7716 22.6694 16.9684 22.6694 17.2116V23.4004C22.6694 23.5746 22.567 23.7321 22.408 23.8025C22.2488 23.8735 22.0637 23.8436 21.9346 23.7274L20.6674 22.584L19.358 23.7996C19.1608 23.982 18.6185 24.0351 18.6185 23.4766Z" fill="#36DC00"/>
</svg>
