<svg width="42" height="42" viewBox="0 0 42 42" fill="none" xmlns="http://www.w3.org/2000/svg">
<path d="M7.24032 39.2085C8.36858 39.2049 9.44957 38.755 10.2472 37.9571C11.0449 37.1591 11.4943 36.0779 11.4975 34.9497V27.2331C11.4752 26.1186 11.0167 25.0572 10.2206 24.2769C9.42453 23.4966 8.35422 23.0595 7.23947 23.0595C6.12471 23.0595 5.0544 23.4966 4.25829 24.2769C3.46219 25.0572 3.00377 26.1186 2.98145 27.2331V34.9497C2.9846 36.0782 3.43432 37.1596 4.23233 37.9577C5.03034 38.7557 6.11177 39.2054 7.24032 39.2085ZM5.54395 27.2331C5.55792 26.7928 5.74269 26.3751 6.05913 26.0685C6.37558 25.762 6.79888 25.5906 7.23947 25.5906C7.68005 25.5906 8.10335 25.762 8.4198 26.0685C8.73625 26.3751 8.92101 26.7928 8.93499 27.2331V34.9497C8.9422 35.1769 8.90368 35.4032 8.82172 35.6152C8.73976 35.8272 8.61602 36.0206 8.45787 36.1838C8.29971 36.3471 8.11036 36.4769 7.90105 36.5655C7.69175 36.6542 7.46677 36.6999 7.23947 36.6999C7.01216 36.6999 6.78718 36.6542 6.57788 36.5655C6.36858 36.4769 6.17922 36.3471 6.02107 36.1838C5.86291 36.0206 5.73918 35.8272 5.65721 35.6152C5.57525 35.4032 5.53673 35.1769 5.54395 34.9497V27.2331Z" fill="#36DC00"/>
<path d="M16.6468 39.2086C17.7751 39.205 18.8561 38.755 19.6537 37.9571C20.4513 37.1591 20.9008 36.0779 20.904 34.9497V20.3998C20.904 19.2707 20.4555 18.1879 19.6571 17.3895C18.8587 16.5912 17.7759 16.1426 16.6468 16.1426C15.5177 16.1426 14.4349 16.5912 13.6365 17.3895C12.8382 18.1879 12.3896 19.2707 12.3896 20.3998V34.9497C12.3928 36.0779 12.8423 37.1591 13.6399 37.9571C14.4376 38.755 15.5186 39.205 16.6468 39.2086ZM14.9521 20.3998C14.9521 19.9504 15.1307 19.5193 15.4485 19.2015C15.7663 18.8837 16.1974 18.7051 16.6468 18.7051C17.0963 18.7051 17.5273 18.8837 17.8451 19.2015C18.1629 19.5193 18.3415 19.9504 18.3415 20.3998V34.9497C18.3415 35.3991 18.1629 35.8302 17.8451 36.148C17.5273 36.4658 17.0963 36.6443 16.6468 36.6443C16.1974 36.6443 15.7663 36.4658 15.4485 36.148C15.1307 35.8302 14.9521 35.3991 14.9521 34.9497V20.3998Z" fill="#36DC00"/>
<path d="M26.0531 9.3093C24.9251 9.3129 23.8444 9.76258 23.0468 10.5602C22.2492 11.3578 21.7995 12.4385 21.7959 13.5665V34.9497C21.7959 35.5087 21.906 36.0623 22.12 36.5788C22.3339 37.0953 22.6475 37.5646 23.0428 37.9599C23.4381 38.3553 23.9074 38.6688 24.4239 38.8828C24.9404 39.0967 25.494 39.2068 26.0531 39.2068C26.6121 39.2068 27.1657 39.0967 27.6822 38.8828C28.1987 38.6688 28.668 38.3553 29.0633 37.9599C29.4587 37.5646 29.7722 37.0953 29.9862 36.5788C30.2001 36.0623 30.3102 35.5087 30.3102 34.9497V13.5665C30.3066 12.4385 29.8569 11.3578 29.0594 10.5602C28.2618 9.76258 27.181 9.3129 26.0531 9.3093ZM27.7477 34.9497C27.7477 35.3991 27.5692 35.8302 27.2514 36.148C26.9336 36.4658 26.5025 36.6443 26.0531 36.6443C25.6036 36.6443 25.1726 36.4658 24.8548 36.148C24.5369 35.8302 24.3584 35.3991 24.3584 34.9497V13.5665C24.3584 13.117 24.5369 12.686 24.8548 12.3682C25.1726 12.0503 25.6036 11.8718 26.0531 11.8718C26.5025 11.8718 26.9336 12.0503 27.2514 12.3682C27.5692 12.686 27.7477 13.117 27.7477 13.5665V34.9497Z" fill="#36DC00"/>
<path d="M35.4592 2.47595C34.3312 2.47956 33.2505 2.92923 32.4529 3.72683C31.6553 4.52442 31.2056 5.60516 31.202 6.73312V34.9497C31.1907 35.516 31.2924 36.0789 31.5013 36.6055C31.7102 37.132 32.022 37.6116 32.4186 38.0161C32.8151 38.4207 33.2883 38.742 33.8106 38.9614C34.3328 39.1808 34.8936 39.2938 35.46 39.2938C36.0265 39.2938 36.5873 39.1808 37.1095 38.9614C37.6318 38.742 38.105 38.4207 38.5015 38.0161C38.8981 37.6116 39.2099 37.132 39.4188 36.6055C39.6277 36.0789 39.7294 35.516 39.7181 34.9497V6.73312C39.7145 5.60486 39.2645 4.52387 38.4666 3.72623C37.6686 2.92859 36.5875 2.47911 35.4592 2.47595ZM37.1556 34.9497C37.1628 35.1769 37.1243 35.4032 37.0423 35.6152C36.9603 35.8272 36.8366 36.0206 36.6784 36.1838C36.5203 36.3471 36.3309 36.4769 36.1216 36.5655C35.9123 36.6542 35.6873 36.6999 35.46 36.6999C35.2327 36.6999 35.0078 36.6542 34.7985 36.5655C34.5892 36.4769 34.3998 36.3471 34.2416 36.1838C34.0835 36.0206 33.9598 35.8272 33.8778 35.6152C33.7958 35.4032 33.7573 35.1769 33.7645 34.9497V6.73312C33.7785 6.29275 33.9633 5.8751 34.2797 5.56855C34.5962 5.26199 35.0195 5.09057 35.46 5.09057C35.9006 5.09057 36.3239 5.26199 36.6404 5.56855C36.9568 5.8751 37.1416 6.29275 37.1556 6.73312V34.9497Z" fill="#36DC00"/>
<path d="M4.93599 6.76899V10.5905C4.93599 10.9303 5.07098 11.2562 5.31126 11.4965C5.55155 11.7368 5.87744 11.8718 6.21724 11.8718C6.55705 11.8718 6.88294 11.7368 7.12323 11.4965C7.36351 11.2562 7.4985 10.9303 7.4985 10.5905V6.76729C7.73649 6.93451 8.02666 7.01064 8.3161 6.98179C8.60554 6.95294 8.87498 6.82103 9.07529 6.61012C9.1943 6.49128 9.28871 6.35014 9.35313 6.19478C9.41754 6.03942 9.4507 5.87289 9.4507 5.7047C9.4507 5.53652 9.41754 5.36998 9.35313 5.21462C9.28871 5.05926 9.1943 4.91813 9.07529 4.79929L7.12266 2.84837C7.10216 2.82787 7.07483 2.82104 7.05433 2.80224C6.95356 2.70753 6.83819 2.62965 6.71266 2.57162C6.56209 2.51111 6.40171 2.47869 6.23945 2.47595H6.22237C6.05395 2.47581 5.88722 2.5095 5.73208 2.57504C5.57711 2.6388 5.43609 2.73223 5.31695 2.85008L3.36091 4.79929C3.24185 4.91827 3.1474 5.05955 3.08296 5.21505C3.01852 5.37056 2.98535 5.53723 2.98535 5.70556C2.98535 5.87388 3.01852 6.04056 3.08296 6.19606C3.1474 6.35156 3.24185 6.49284 3.36091 6.61183C3.56634 6.81341 3.83441 6.93887 4.12081 6.96744C4.40721 6.99602 4.69478 6.92601 4.93599 6.76899Z" fill="#36DC00"/>
<path d="M10.1254 7.29346C9.78564 7.29346 9.45975 7.42845 9.21946 7.66873C8.97918 7.90901 8.84419 8.2349 8.84419 8.57471V12.398C8.60271 12.2387 8.31394 12.1672 8.02605 12.1951C7.73817 12.2231 7.46858 12.349 7.26228 12.5517C7.14322 12.6707 7.04877 12.812 6.98433 12.9675C6.91989 13.123 6.88672 13.2897 6.88672 13.458C6.88672 13.6263 6.91989 13.793 6.98433 13.9485C7.04877 14.104 7.14322 14.2453 7.26228 14.3642L9.22003 16.3117C9.46128 16.5511 9.78734 16.6853 10.1272 16.6853C10.467 16.6853 10.793 16.5511 11.0343 16.3117L12.9784 14.3625C13.0974 14.2437 13.1918 14.1026 13.2562 13.9472C13.3206 13.7918 13.3538 13.6253 13.3538 13.4571C13.3538 13.2889 13.3206 13.1224 13.2562 12.967C13.1918 12.8117 13.0974 12.6705 12.9784 12.5517C12.7729 12.3501 12.5049 12.2247 12.2185 12.1961C11.9321 12.1675 11.6445 12.2375 11.4033 12.3945V8.57471C11.4033 8.23549 11.2688 7.91011 11.0292 7.66993C10.7897 7.42975 10.4647 7.29436 10.1254 7.29346Z" fill="#36DC00"/>
</svg>
