<svg width="42" height="43" viewBox="0 0 42 43" fill="none" xmlns="http://www.w3.org/2000/svg">
<g clip-path="url(#clip0_15_144)">
<path d="M41.3836 38.8178H38.5504V27.282C38.5504 26.9415 38.2744 26.6655 37.934 26.6655C37.5935 26.6655 37.3175 26.9415 37.3175 27.282V38.8178H32.5165V18.5272C32.5165 18.4139 32.6087 18.3217 32.722 18.3217H37.1121C37.2253 18.3217 37.3175 18.4139 37.3175 18.5272V24.8162C37.3175 25.1567 37.5935 25.4327 37.934 25.4327C38.2744 25.4327 38.5504 25.1567 38.5504 24.8162V18.5272C38.5504 17.7341 37.9052 17.0888 37.1121 17.0888H32.722C31.929 17.0888 31.2837 17.7341 31.2837 18.5272V38.8179H29.2724V23.0134C29.2724 22.2203 28.6271 21.575 27.834 21.575H23.444C22.6508 21.575 22.0056 22.2203 22.0056 23.0134V38.8179H19.9943V27.4995C19.9943 26.7065 19.3491 26.0612 18.5559 26.0612H14.1659C13.3728 26.0612 12.7276 26.7065 12.7276 27.4995V32.8898C12.7276 33.2303 13.0036 33.5063 13.344 33.5063C13.6844 33.5063 13.9604 33.2303 13.9604 32.8898V27.4995C13.9604 27.3862 14.0527 27.2941 14.1659 27.2941H18.5559C18.6693 27.2941 18.7614 27.3862 18.7614 27.4995V38.8178H13.9604V35.3556C13.9604 35.0152 13.6844 34.7392 13.344 34.7392C13.0036 34.7392 12.7276 35.0152 12.7276 35.3556V38.8178H10.7162V31.9857C10.7162 31.1927 10.071 30.5474 9.27789 30.5474H4.88795C4.09488 30.5474 3.44959 31.1927 3.44959 31.9857V38.8178H0.616438C0.276 38.8178 0 39.0938 0 39.4343C0 39.7747 0.276 40.0507 0.616438 40.0507H41.3836C41.724 40.0507 42 39.7747 42 39.4343C42 39.0938 41.724 38.8178 41.3836 38.8178ZM23.2385 23.0134C23.2385 22.9001 23.3307 22.8079 23.444 22.8079H27.834C27.9473 22.8079 28.0395 22.9001 28.0395 23.0134V38.8179H23.2385V23.0134ZM4.68247 31.9857C4.68247 31.8725 4.77468 31.7803 4.88795 31.7803H9.27797C9.39132 31.7803 9.48345 31.8725 9.48345 31.9857V38.8178H4.68247V31.9857Z" fill="#37DD00"/>
<path d="M6.58266 23.1882C6.61644 23.1882 6.65055 23.187 6.68474 23.1847C11.2309 22.8689 15.506 21.8767 19.3913 20.2358C24.6229 18.0261 28.954 14.6954 32.2731 10.3309L34.3507 11.7755C34.7601 12.0807 35.3837 11.7139 35.316 11.2078L34.4549 2.62963C34.4269 2.26331 34.0395 1.9938 33.6861 2.09465L25.3373 4.26911C24.8389 4.38155 24.7119 5.09415 25.1407 5.3718L27.2373 6.82955C26.8202 7.48495 25.9011 8.78448 24.2986 10.3741C24.0569 10.6139 24.0553 11.0042 24.2951 11.2458C24.5348 11.4875 24.9252 11.4891 25.1668 11.2493C27.6372 8.79879 28.5699 7.007 28.6084 6.93196C28.7492 6.65728 28.6652 6.32079 28.4118 6.14457L26.9447 5.12448L33.3002 3.46922L33.9557 9.99911L32.4874 8.97821C32.2124 8.78703 31.8353 8.85032 31.6378 9.12057C28.4078 13.54 24.126 16.8976 18.9116 19.1C14.2285 21.0778 9.63132 21.744 6.59942 21.9546C6.4223 22 6.36863 21.6748 6.54501 21.6559C13.2991 19.5716 18.9397 16.6414 23.3101 12.9469C23.5701 12.7271 23.6027 12.3382 23.3829 12.0782C23.1632 11.8183 22.7741 11.7856 22.5142 12.0054C18.2713 15.5922 12.7762 18.4427 6.18156 20.4778C5.49674 20.6891 5.0949 21.3533 5.22608 22.0571C5.35077 22.7263 5.91271 23.1882 6.58266 23.1882Z" fill="#37DD00"/>
</g>
<defs>
<clipPath id="clip0_15_144">
<rect width="42" height="42" fill="white" transform="translate(0 0.0620422)"/>
</clipPath>
</defs>
</svg>
