<svg width="33" height="33" viewBox="0 0 33 33" fill="none" xmlns="http://www.w3.org/2000/svg">
<g clip-path="url(#clip0_322_1667)">
<path d="M16.7317 0.081543C7.89478 0.081543 0.730469 7.24586 0.730469 16.0828C0.730469 24.9198 7.89478 32.0841 16.7317 32.0841C25.5687 32.0841 32.733 24.9198 32.733 16.0828C32.733 7.24586 25.5687 0.081543 16.7317 0.081543Z" fill="#222221"/>
<path d="M18.482 14.6346L25.3319 6.67212H23.7087L17.7609 13.5859L13.0104 6.67212H7.53125L14.7149 17.1269L7.53125 25.4768H9.15456L15.4356 18.1757L20.4525 25.4768H25.9316L18.4815 14.6346H18.482ZM9.73945 7.89414H12.2328L23.7094 24.3104H21.2161L9.73945 7.89414Z" fill="white"/>
</g>
<defs>
<clipPath id="clip0_322_1667">
<rect width="32.0025" height="32.0025" fill="white" transform="translate(0.730469 0.081543)"/>
</clipPath>
</defs>
</svg>
