<svg width="36" height="35" viewBox="0 0 36 35" fill="none" xmlns="http://www.w3.org/2000/svg">
<path d="M11.6611 34.5591H3.34863C2.71874 34.5591 2.11465 34.3022 1.66925 33.8451C1.22386 33.388 0.973633 32.768 0.973633 32.1216V31.3091C0.973633 31.0936 1.05704 30.8869 1.20551 30.7345C1.35397 30.5822 1.55534 30.4966 1.7653 30.4966C1.97526 30.4966 2.17663 30.5822 2.32509 30.7345C2.47356 30.8869 2.55697 31.0936 2.55697 31.3091V32.1216C2.55697 32.337 2.64037 32.5437 2.78884 32.6961C2.93731 32.8484 3.13867 32.9341 3.34863 32.9341H11.6611C11.8711 32.9341 12.0725 32.8484 12.2209 32.6961C12.3694 32.5437 12.4528 32.337 12.4528 32.1216V23.5903C12.4528 23.3748 12.3694 23.1681 12.2209 23.0158C12.0725 22.8634 11.8711 22.7778 11.6611 22.7778H3.34863C3.13867 22.7778 2.93731 22.8634 2.78884 23.0158C2.64037 23.1681 2.55697 23.3748 2.55697 23.5903V26.4341C2.55697 26.6495 2.47356 26.8562 2.32509 27.0086C2.17663 27.1609 1.97526 27.2466 1.7653 27.2466C1.55534 27.2466 1.35397 27.1609 1.20551 27.0086C1.05704 26.8562 0.973633 26.6495 0.973633 26.4341V23.5903C0.973633 22.9438 1.22386 22.3238 1.66925 21.8667C2.11465 21.4096 2.71874 21.1528 3.34863 21.1528H11.6611C12.291 21.1528 12.8951 21.4096 13.3405 21.8667C13.7859 22.3238 14.0361 22.9438 14.0361 23.5903V32.1216C14.0361 32.768 13.7859 33.388 13.3405 33.8451C12.8951 34.3022 12.291 34.5591 11.6611 34.5591Z" fill="#36DC00"/>
<path d="M1.7653 29.6841C2.20252 29.6841 2.55697 29.3203 2.55697 28.8716C2.55697 28.4228 2.20252 28.0591 1.7653 28.0591C1.32807 28.0591 0.973633 28.4228 0.973633 28.8716C0.973633 29.3203 1.32807 29.6841 1.7653 29.6841Z" fill="#36DC00"/>
<path d="M13.2444 19.1216C13.0883 19.1209 12.9359 19.0729 12.8063 18.9836C12.6767 18.8942 12.5758 18.7676 12.5161 18.6196C12.4565 18.4715 12.4408 18.3087 12.4711 18.1515C12.5014 17.9943 12.5762 17.8499 12.6863 17.7363L14.2696 16.1113C14.4211 15.9782 14.6159 15.9086 14.8151 15.9165C15.0143 15.9244 15.2034 16.0092 15.3443 16.1539C15.4853 16.2986 15.5679 16.4925 15.5756 16.697C15.5833 16.9015 15.5156 17.1015 15.3859 17.2569L13.8025 18.8819C13.6547 19.0345 13.454 19.1207 13.2444 19.1216Z" fill="#36DC00"/>
<path d="M9.28639 19.1216C9.1303 19.1209 8.97788 19.0729 8.8483 18.9836C8.71873 18.8942 8.61777 18.7676 8.55812 18.6196C8.49848 18.4715 8.48281 18.3087 8.51308 18.1515C8.54335 17.9943 8.61822 17.8499 8.72827 17.7363L10.3116 16.1113C10.463 15.9782 10.6579 15.9086 10.8571 15.9165C11.0563 15.9244 11.2453 16.0092 11.3863 16.1539C11.5273 16.2986 11.6099 16.4925 11.6176 16.697C11.6253 16.9015 11.5575 17.1015 11.4278 17.2569L9.84452 18.8819C9.69673 19.0345 9.49601 19.1207 9.28639 19.1216Z" fill="#36DC00"/>
<path d="M17.2029 19.1216C17.0468 19.1209 16.8944 19.0729 16.7648 18.9836C16.6352 18.8942 16.5343 18.7676 16.4746 18.6196C16.415 18.4715 16.3993 18.3087 16.4296 18.1515C16.4599 17.9943 16.5347 17.8499 16.6448 17.7363L18.2281 16.1113C18.3795 15.9782 18.5744 15.9086 18.7736 15.9165C18.9728 15.9244 19.1618 16.0092 19.3028 16.1539C19.4438 16.2986 19.5264 16.4925 19.5341 16.697C19.5418 16.9015 19.474 17.1015 19.3444 17.2569L17.761 18.8819C17.6132 19.0345 17.4125 19.1207 17.2029 19.1216Z" fill="#36DC00"/>
<path d="M21.1614 19.1216C21.0053 19.1209 20.8529 19.0729 20.7233 18.9836C20.5937 18.8942 20.4928 18.7676 20.4331 18.6196C20.3735 18.4715 20.3578 18.3087 20.3881 18.1515C20.4184 17.9943 20.4932 17.8499 20.6033 17.7363L22.1866 16.1113C22.338 15.9782 22.5329 15.9086 22.7321 15.9165C22.9313 15.9244 23.1203 16.0092 23.2613 16.1539C23.4023 16.2986 23.4849 16.4925 23.4926 16.697C23.5003 16.9015 23.4325 17.1015 23.3028 17.2569L21.7195 18.8819C21.5717 19.0345 21.371 19.1207 21.1614 19.1216Z" fill="#36DC00"/>
<path d="M25.1194 19.1216C24.9633 19.1209 24.8109 19.0729 24.6813 18.9836C24.5517 18.8942 24.4508 18.7676 24.3911 18.6196C24.3315 18.4715 24.3158 18.3087 24.3461 18.1515C24.3764 17.9943 24.4512 17.8499 24.5613 17.7363L26.1446 16.1113C26.2961 15.9782 26.4909 15.9086 26.6901 15.9165C26.8894 15.9244 27.0784 16.0092 27.2193 16.1539C27.3603 16.2986 27.4429 16.4925 27.4506 16.697C27.4583 16.9015 27.3906 17.1015 27.2609 17.2569L25.6775 18.8819C25.5297 19.0345 25.329 19.1207 25.1194 19.1216Z" fill="#36DC00"/>
<path d="M32.6406 13.8403H24.3281C23.6982 13.8403 23.0941 13.5835 22.6487 13.1264C22.2033 12.6693 21.9531 12.0493 21.9531 11.4028V2.87155C21.9531 2.22509 22.2033 1.6051 22.6487 1.14798C23.0941 0.690859 23.6982 0.434052 24.3281 0.434052H32.6406C33.2705 0.434052 33.8746 0.690859 34.32 1.14798C34.7654 1.6051 35.0156 2.22509 35.0156 2.87155V11.4028C35.0156 12.0493 34.7654 12.6693 34.32 13.1264C33.8746 13.5835 33.2705 13.8403 32.6406 13.8403ZM24.3281 2.05905C24.1182 2.05905 23.9168 2.14465 23.7683 2.29703C23.6199 2.4494 23.5365 2.65606 23.5365 2.87155V11.4028C23.5365 11.6183 23.6199 11.825 23.7683 11.9773C23.9168 12.1297 24.1182 12.2153 24.3281 12.2153H32.6406C32.8506 12.2153 33.052 12.1297 33.2004 11.9773C33.3489 11.825 33.4323 11.6183 33.4323 11.4028V2.87155C33.4323 2.65606 33.3489 2.4494 33.2004 2.29703C33.052 2.14465 32.8506 2.05905 32.6406 2.05905H24.3281Z" fill="#36DC00"/>
<path d="M2.10585 19.3653C1.94014 19.361 1.77995 19.3033 1.64786 19.2006C1.51577 19.0978 1.41844 18.9551 1.3696 18.7925C0.875346 17.1416 0.740785 15.3995 0.97544 13.6893C1.21009 11.9791 1.80823 10.3428 2.72748 8.89629C3.64673 7.44972 4.86463 6.22827 6.29491 5.31843C7.7252 4.40858 9.33291 3.83259 11.0042 3.63125V1.24656C11.0039 1.08593 11.0499 0.928794 11.1366 0.795023C11.2232 0.661252 11.3466 0.556848 11.4911 0.495002C11.636 0.433795 11.7953 0.418108 11.949 0.449929C12.1026 0.48175 12.2435 0.559647 12.354 0.673752L17.7611 6.22313C17.9085 6.37536 17.9913 6.58129 17.9913 6.79594C17.9913 7.01059 17.9085 7.21652 17.7611 7.36875L12.354 12.9181C12.2435 13.0322 12.1026 13.1101 11.949 13.1419C11.7953 13.1738 11.636 13.1581 11.4911 13.0969C11.3466 13.035 11.2232 12.9306 11.1366 12.7969C11.0499 12.6631 11.0039 12.506 11.0042 12.3453V10.1841C8.94855 10.5319 7.05414 11.5423 5.59526 13.0687C4.13639 14.5952 3.18876 16.5586 2.8896 18.6747C2.86216 18.857 2.7751 19.0243 2.64273 19.149C2.51036 19.2738 2.34057 19.3487 2.16126 19.3613L2.10585 19.3653ZM12.5875 3.20875V4.37875C12.5878 4.58738 12.5098 4.78812 12.3698 4.93938C12.2298 5.09063 12.0385 5.18082 11.8354 5.19125C9.38146 5.30983 7.05883 6.36356 5.32169 8.14641C3.58455 9.92927 2.55784 12.313 2.4423 14.8316C3.32867 13.042 4.64893 11.5168 6.276 10.4025C7.90307 9.28834 9.78219 8.6227 11.7325 8.46969C11.8417 8.4607 11.9515 8.47505 12.055 8.51183C12.1584 8.54862 12.2534 8.60704 12.3337 8.6834C12.4141 8.75977 12.4781 8.85241 12.5218 8.95548C12.5655 9.05855 12.5879 9.16979 12.5875 9.28219V10.3872L16.0827 6.8L12.5875 3.20875Z" fill="#36DC00"/>
<path d="M33.8835 15.6278C34.0526 15.6279 34.2172 15.6836 34.3533 15.7866C34.4893 15.8897 34.5896 16.0348 34.6395 16.2006C35.1339 17.853 35.2679 19.5967 35.0321 21.3082C34.7963 23.0197 34.1964 24.6569 33.275 26.1038C32.3537 27.5507 31.1334 28.7718 29.7007 29.6805C28.2681 30.5892 26.6581 31.1632 24.9851 31.3619V33.7466C24.9855 33.9072 24.9394 34.0643 24.8527 34.1981C24.7661 34.3319 24.6427 34.4363 24.4983 34.4981C24.3533 34.5593 24.194 34.575 24.0404 34.5432C23.8867 34.5114 23.7458 34.4335 23.6353 34.3194L18.2283 28.77C18.0808 28.6178 17.998 28.4118 17.998 28.1972C17.998 27.9825 18.0808 27.7766 18.2283 27.6244L23.6353 22.075C23.7458 21.9609 23.8867 21.883 24.0404 21.8512C24.194 21.8194 24.3533 21.835 24.4983 21.8962C24.6427 21.9581 24.7661 22.0625 24.8527 22.1963C24.9394 22.33 24.9855 22.4872 24.9851 22.6478V24.8091C27.0408 24.4612 28.9352 23.4509 30.394 21.9244C31.8529 20.3979 32.8006 18.4345 33.0997 16.3184C33.1272 16.1361 33.2142 15.9689 33.3466 15.8441C33.4789 15.7193 33.6487 15.6445 33.828 15.6319L33.8835 15.6278ZM23.4018 31.7844V30.6144C23.4015 30.4057 23.4795 30.205 23.6195 30.0537C23.7595 29.9025 23.9509 29.8123 24.1539 29.8019C26.6078 29.6833 28.9305 28.6296 30.6676 26.8467C32.4048 25.0639 33.4315 22.6801 33.547 20.1616C32.6606 21.9511 31.3404 23.4764 29.7133 24.5906C28.0862 25.7048 26.2071 26.3704 24.2568 26.5234C24.1476 26.5324 24.0378 26.5181 23.9344 26.4813C23.8309 26.4445 23.736 26.3861 23.6556 26.3097C23.5752 26.2334 23.5112 26.1407 23.4675 26.0376C23.4238 25.9346 23.4014 25.8233 23.4018 25.7109V24.61L19.9066 28.1972L23.4018 31.7844Z" fill="#36DC00"/>
<path d="M8.69271 30.9028H6.71354C6.50358 30.9028 6.30222 30.8172 6.15375 30.6648C6.00528 30.5125 5.92188 30.3058 5.92188 30.0903V27.6528C5.92188 27.4373 6.00528 27.2306 6.15375 27.0783C6.30222 26.9259 6.50358 26.8403 6.71354 26.8403H7.90104V26.0278H6.71354C6.50358 26.0278 6.30222 25.9422 6.15375 25.7898C6.00528 25.6375 5.92188 25.4308 5.92188 25.2153C5.92188 24.9998 6.00528 24.7931 6.15375 24.6408C6.30222 24.4884 6.50358 24.4028 6.71354 24.4028H8.69271C8.90267 24.4028 9.10403 24.4884 9.2525 24.6408C9.40097 24.7931 9.48438 24.9998 9.48438 25.2153V27.6528C9.48438 27.8683 9.40097 28.075 9.2525 28.2273C9.10403 28.3797 8.90267 28.4653 8.69271 28.4653H7.50521V29.2778H8.69271C8.90267 29.2778 9.10403 29.3634 9.2525 29.5158C9.40097 29.6681 9.48438 29.8748 9.48438 30.0903C9.48438 30.3058 9.40097 30.5125 9.2525 30.6648C9.10403 30.8172 8.90267 30.9028 8.69271 30.9028Z" fill="#36DC00"/>
<path d="M29.474 10.1841H27.4948C27.2848 10.1841 27.0835 10.0984 26.935 9.94608C26.7865 9.7937 26.7031 9.58704 26.7031 9.37155C26.7031 9.15606 26.7865 8.9494 26.935 8.79703C27.0835 8.64465 27.2848 8.55905 27.4948 8.55905H28.6823V6.93405C28.6823 6.71856 28.7657 6.5119 28.9142 6.35953C29.0626 6.20715 29.264 6.12155 29.474 6.12155C29.6839 6.12155 29.8853 6.20715 30.0338 6.35953C30.1822 6.5119 30.2656 6.71856 30.2656 6.93405V9.37155C30.2656 9.58704 30.1822 9.7937 30.0338 9.94608C29.8853 10.0984 29.6839 10.1841 29.474 10.1841Z" fill="#36DC00"/>
<path d="M29.474 7.74655H27.4948C27.2848 7.74655 27.0835 7.66095 26.935 7.50858C26.7865 7.3562 26.7031 7.14954 26.7031 6.93405C26.7031 6.71856 26.7865 6.5119 26.935 6.35953C27.0835 6.20715 27.2848 6.12155 27.4948 6.12155H28.6823V5.30905H27.4948C27.2848 5.30905 27.0835 5.22345 26.935 5.07108C26.7865 4.9187 26.7031 4.71204 26.7031 4.49655C26.7031 4.28106 26.7865 4.0744 26.935 3.92203C27.0835 3.76965 27.2848 3.68405 27.4948 3.68405H29.474C29.6839 3.68405 29.8853 3.76965 30.0338 3.92203C30.1822 4.0744 30.2656 4.28106 30.2656 4.49655V6.93405C30.2656 7.14954 30.1822 7.3562 30.0338 7.50858C29.8853 7.66095 29.6839 7.74655 29.474 7.74655Z" fill="#36DC00"/>
</svg>
