<svg width="80" height="77" viewBox="0 0 80 77" fill="none" xmlns="http://www.w3.org/2000/svg">
<path d="M70.6517 40.2418L58.8675 34.6368V13.1668C58.8589 11.6996 58.2492 10.2949 57.1708 9.25739C56.0924 8.21993 54.6322 7.6334 53.1071 7.62509H13.6071C12.082 7.6334 10.6218 8.21993 9.54341 9.25739C8.46499 10.2949 7.85532 11.6996 7.84668 13.1668V63.8334C7.85532 65.3006 8.46499 66.7053 9.54341 67.7428C10.6218 68.7803 12.082 69.3668 13.6071 69.3751H49.8154C50.9448 69.3694 52.0624 69.1544 53.1071 68.7418C54.6025 69.1742 56.2122 69.0499 57.6167 68.3934C61.9743 66.3456 65.6458 63.1607 68.2125 59.2021C70.7792 55.2435 72.1376 50.6706 72.1329 46.0051V42.3951C72.1282 41.937 71.9859 41.4899 71.7231 41.1078C71.4602 40.7258 71.0882 40.425 70.6517 40.2418ZM61.435 49.7418L54.8517 56.0751C54.3888 56.5199 53.7613 56.7697 53.1071 56.7697C52.4529 56.7697 51.8254 56.5199 51.3625 56.0751L48.0708 52.9084C47.8283 52.691 47.6337 52.4288 47.4988 52.1375C47.3639 51.8461 47.2913 51.5316 47.2855 51.2127C47.2796 50.8939 47.3406 50.5771 47.4648 50.2814C47.5889 49.9856 47.7738 49.717 48.0082 49.4915C48.2426 49.2659 48.5219 49.0882 48.8293 48.9687C49.1367 48.8493 49.4659 48.7906 49.7974 48.7962C50.1289 48.8018 50.4558 48.8716 50.7586 49.0015C51.0614 49.1313 51.334 49.3184 51.56 49.5518L53.1071 51.0401L57.9458 46.3851C58.4138 45.9656 59.0328 45.7372 59.6724 45.748C60.312 45.7589 60.9222 46.0081 61.3745 46.4433C61.8268 46.8784 62.0859 47.4655 62.0972 48.0808C62.1085 48.6961 61.8711 49.2915 61.435 49.7418ZM13.6071 64.6251C13.3888 64.6251 13.1795 64.5417 13.0252 64.3932C12.8709 64.2448 12.7842 64.0434 12.7842 63.8334V13.1668C12.7842 12.9568 12.8709 12.7554 13.0252 12.607C13.1795 12.4585 13.3888 12.3751 13.6071 12.3751H53.1071C53.2152 12.3751 53.3222 12.3956 53.422 12.4354C53.5219 12.4751 53.6126 12.5335 53.689 12.607C53.7654 12.6805 53.826 12.7678 53.8674 12.8638C53.9087 12.9598 53.93 13.0628 53.93 13.1668V33.1484C53.93 33.1484 53.7325 33.1484 53.6667 33.1484L38.8542 40.1784C38.4362 40.3755 38.0845 40.6822 37.8399 41.0632C37.5953 41.4442 37.4677 41.884 37.4717 42.3318V45.9418C37.4635 49.464 38.2376 52.9473 39.7419 56.1584C41.2462 59.3696 43.4462 62.2347 46.1946 64.5618L13.6071 64.6251Z" fill="#37DD00"/>
<path d="M30.0654 45.6251H20.1904C19.5357 45.6251 18.9077 45.8753 18.4448 46.3207C17.9818 46.7661 17.7217 47.3702 17.7217 48.0001C17.7217 48.63 17.9818 49.2341 18.4448 49.6795C18.9077 50.1249 19.5357 50.3751 20.1904 50.3751H30.0654C30.7202 50.3751 31.3481 50.1249 31.8111 49.6795C32.2741 49.2341 32.5342 48.63 32.5342 48.0001C32.5342 47.3702 32.2741 46.7661 31.8111 46.3207C31.3481 45.8753 30.7202 45.6251 30.0654 45.6251Z" fill="#37DD00"/>
<path d="M33.3571 32.9584H20.1904C19.5357 32.9584 18.9077 33.2087 18.4448 33.6541C17.9818 34.0995 17.7217 34.7035 17.7217 35.3334C17.7217 35.9633 17.9818 36.5674 18.4448 37.0128C18.9077 37.4582 19.5357 37.7084 20.1904 37.7084H33.3571C34.0118 37.7084 34.6398 37.4582 35.1028 37.0128C35.5657 36.5674 35.8258 35.9633 35.8258 35.3334C35.8258 34.7035 35.5657 34.0995 35.1028 33.6541C34.6398 33.2087 34.0118 32.9584 33.3571 32.9584Z" fill="#37DD00"/>
<path d="M20.1904 25.0417H46.5238C47.1785 25.0417 47.8065 24.7915 48.2694 24.3461C48.7324 23.9007 48.9925 23.2966 48.9925 22.6667C48.9925 22.0369 48.7324 21.4328 48.2694 20.9874C47.8065 20.542 47.1785 20.2917 46.5238 20.2917H20.1904C19.5357 20.2917 18.9077 20.542 18.4448 20.9874C17.9818 21.4328 17.7217 22.0369 17.7217 22.6667C17.7217 23.2966 17.9818 23.9007 18.4448 24.3461C18.9077 24.7915 19.5357 25.0417 20.1904 25.0417Z" fill="#37DD00"/>
</svg>
