<svg width="85" height="85" viewBox="0 0 85 85" fill="none" xmlns="http://www.w3.org/2000/svg">
<path d="M74.3331 33.9128H60.28V7.35848C60.28 3.91847 57.478 1.11646 54.0378 1.11646H30.9582C27.5181 1.11646 24.7161 3.91847 24.7161 7.35848V33.9128H10.6631C8.58522 33.9128 6.88672 35.6113 6.88672 37.6892V44.3278C6.88672 46.4141 8.58506 48.104 10.6631 48.104H12.8271V77.9259C12.8271 81.2107 15.5082 83.8834 18.7932 83.8834H66.2031C69.4965 83.8834 72.1692 81.2107 72.1692 77.9259V48.104H74.3332C76.4197 48.104 78.1096 46.4141 78.1096 44.3278V37.6892C78.1094 35.6113 76.4197 33.9128 74.3331 33.9128ZM26.4404 7.35848C26.4404 4.86691 28.4664 2.84086 30.958 2.84086H54.0378C56.5295 2.84086 58.5558 4.86691 58.5558 7.35848V33.9128H26.4404V7.35848ZM70.4448 77.9259C70.4448 80.2622 68.5394 82.1591 66.2031 82.1591H18.793C16.4567 82.1591 14.5513 80.2624 14.5513 77.9259V48.104H70.4448V77.9259Z" fill="#37DD00"/>
<path d="M42.5031 12.0574C37.2957 12.0574 33.0625 16.2904 33.0625 21.4894C33.0625 26.6968 37.2956 30.93 42.5031 30.93C47.7019 30.93 51.9352 26.697 51.9352 21.4894C51.9352 16.2904 47.7019 12.0574 42.5031 12.0574ZM47.1589 19.2648L41.486 24.9379C41.1496 25.274 40.5979 25.274 40.2616 24.9379L37.8476 22.5238C37.5114 22.1876 37.5114 21.6358 37.8476 21.2996C38.1837 20.9634 38.727 20.9634 39.0633 21.2996L40.8739 23.1102L45.9347 18.0494C46.2709 17.7132 46.8227 17.7132 47.1591 18.0494C47.4951 18.3854 47.4951 18.9286 47.1589 19.2648Z" fill="#37DD00"/>
<path d="M57.1343 54.0615H27.8641C24.9241 54.0615 22.5273 56.4497 22.5273 59.3896V70.8736C22.5273 73.8134 24.9241 76.2103 27.8641 76.2103H57.1343C60.0741 76.2103 62.471 73.8136 62.471 70.8736V59.3896C62.471 56.4498 60.0741 54.0615 57.1343 54.0615ZM34.5286 61.1484L32.08 69.5976C31.9766 69.9683 31.6318 70.227 31.2525 70.227C30.8645 70.227 30.5283 69.9683 30.4249 69.5976L27.9763 61.1484C27.847 60.6914 28.1056 60.2086 28.5627 60.0793C29.0282 59.9499 29.5023 60.2084 29.6318 60.6655L31.2526 66.2608L32.865 60.6655C33.0028 60.2084 33.4684 59.9499 33.9341 60.0793C34.3907 60.2086 34.6579 60.6915 34.5286 61.1484ZM42.0551 66.9163C42.0551 68.7355 40.5722 70.227 38.753 70.227C36.9252 70.227 35.4424 68.7355 35.4424 66.9163V63.3557C35.4424 61.5279 36.9252 60.0451 38.753 60.0451C40.5722 60.0451 42.0551 61.5279 42.0551 63.3557V66.9163ZM48.6937 61.7691H47.1161V69.3648C47.1161 69.839 46.7281 70.227 46.254 70.227C45.7712 70.227 45.3918 69.839 45.3918 69.3648V61.7691H43.8056C43.3313 61.7691 42.9434 61.3812 42.9434 60.907C42.9434 60.4327 43.3314 60.0449 43.8056 60.0449H48.6939C49.1768 60.0449 49.556 60.4329 49.556 60.907C49.5558 61.3813 49.1765 61.7691 48.6937 61.7691ZM56.1945 64.2695C56.6688 64.2695 57.0566 64.6575 57.0566 65.1316C57.0566 65.6144 56.6686 65.9937 56.1945 65.9937H52.1683V68.5026H56.1945C56.6688 68.5026 57.0566 68.8819 57.0566 69.3647C57.0566 69.8388 56.6686 70.2268 56.1945 70.2268H51.3062C50.8318 70.2268 50.444 69.8388 50.444 69.3647V60.9068C50.444 60.4325 50.832 60.0447 51.3062 60.0447H56.1945C56.6688 60.0447 57.0566 60.4327 57.0566 60.9068C57.0566 61.3812 56.6686 61.769 56.1945 61.769H52.1683V64.2692H56.1945V64.2695Z" fill="#37DD00"/>
<path d="M40.328 63.3555V66.916C40.328 67.7868 39.6209 68.5025 38.7503 68.5025C37.871 68.5025 37.1641 67.7868 37.1641 66.916V63.3555C37.1641 62.4761 37.871 61.769 38.7503 61.769C39.6209 61.769 40.328 62.4761 40.328 63.3555Z" fill="#37DD00"/>
</svg>
