<svg width="44" height="45" viewBox="0 0 44 45" fill="none" xmlns="http://www.w3.org/2000/svg">
<g clip-path="url(#clip0_447_2166)">
<path d="M40.4779 43.6785H3.86801C3.50605 43.6785 3.21484 43.3805 3.21484 43.0102V28.0808C3.21484 27.7104 3.50605 27.4124 3.86801 27.4124H40.4779C40.8398 27.4124 41.131 27.7104 41.131 28.0808V43.0102C41.131 43.3805 40.8398 43.6785 40.4779 43.6785ZM4.52117 42.3418H39.8247V28.7492H4.52117V42.3418Z" fill="#37DD00"/>
<path d="M40.4789 28.7492H3.86903C3.63498 28.7492 3.41998 28.6211 3.30296 28.415C3.18593 28.2089 3.18593 27.9555 3.30023 27.7466L9.43726 16.78C9.55429 16.5712 9.76929 16.4431 10.0033 16.4431H20.2335C20.5955 16.4431 20.8867 16.7411 20.8867 17.1114C20.8867 17.4818 20.5955 17.7798 20.2335 17.7798H10.3843L4.99574 27.4125H39.3195L33.6071 17.7798H26.4087C26.0467 17.7798 25.7555 17.4818 25.7555 17.1114C25.7555 16.7411 26.0467 16.4431 26.4087 16.4431H33.9745C34.2031 16.4431 34.4154 16.5656 34.5324 16.7661L41.0341 27.7355C41.1566 27.9416 41.1593 28.2006 41.045 28.4094C40.9307 28.6183 40.7157 28.7492 40.4789 28.7492Z" fill="#37DD00"/>
<path d="M28.2744 23.2659H16.0711C15.7092 23.2659 15.418 22.9679 15.418 22.5975C15.418 22.2271 15.7092 21.9292 16.0711 21.9292H28.2744C28.6364 21.9292 28.9276 22.2271 28.9276 22.5975C28.9276 22.9679 28.6364 23.2659 28.2744 23.2659Z" fill="#37DD00"/>
<path d="M12.25 39.3342C11.9696 39.3342 11.722 39.1504 11.6322 38.8803L9.56926 32.6368C9.45495 32.2859 9.63729 31.9071 9.97748 31.7902C10.3204 31.6732 10.6905 31.8598 10.8048 32.2079L12.25 36.5773L13.6951 32.2079C13.8094 31.857 14.1822 31.6704 14.5224 31.7902C14.8653 31.9071 15.0477 32.2887 14.9306 32.6368L12.8677 38.8803C12.7806 39.1532 12.5303 39.3342 12.25 39.3342Z" fill="#37DD00"/>
<path d="M18.9622 39.3342C17.4653 39.3342 16.2461 38.0866 16.2461 36.555V34.5332C16.2461 33.0016 17.4653 31.754 18.9622 31.754C20.459 31.754 21.6782 33.0016 21.6782 34.5332V36.555C21.6782 38.0894 20.459 39.3342 18.9622 39.3342ZM18.9622 33.0935C18.1838 33.0935 17.5524 33.7395 17.5524 34.536V36.5578C17.5524 37.3542 18.1838 38.0003 18.9622 38.0003C19.7405 38.0003 20.3719 37.3542 20.3719 36.5578V34.536C20.3719 33.7395 19.7378 33.0935 18.9622 33.0935Z" fill="#37DD00"/>
<path d="M25.5399 39.3342C25.1779 39.3342 24.8867 39.0362 24.8867 38.6659V32.4223C24.8867 32.0519 25.1779 31.754 25.5399 31.754C25.9018 31.754 26.193 32.0519 26.193 32.4223V38.6659C26.193 39.0362 25.8991 39.3342 25.5399 39.3342Z" fill="#37DD00"/>
<path d="M27.6032 33.0933H23.4774C23.1154 33.0933 22.8242 32.7953 22.8242 32.4249C22.8242 32.0545 23.1154 31.7566 23.4774 31.7566H27.6032C27.9652 31.7566 28.2564 32.0545 28.2564 32.4249C28.2564 32.7953 27.9624 33.0933 27.6032 33.0933Z" fill="#37DD00"/>
<path d="M34.1591 36.2152H30.6102C30.2482 36.2152 29.957 35.9172 29.957 35.5469C29.957 35.1765 30.2482 34.8785 30.6102 34.8785H34.1591C34.521 34.8785 34.8122 35.1765 34.8122 35.5469C34.8122 35.9172 34.5183 36.2152 34.1591 36.2152Z" fill="#37DD00"/>
<path d="M34.1591 39.3342H30.6102C30.2482 39.3342 29.957 39.0362 29.957 38.6659V32.4223C29.957 32.0519 30.2482 31.754 30.6102 31.754H34.1591C34.521 31.754 34.8122 32.0519 34.8122 32.4223C34.8122 32.7927 34.521 33.0907 34.1591 33.0907H31.2634V37.9975H34.1591C34.521 37.9975 34.8122 38.2955 34.8122 38.6659C34.8122 39.0362 34.5183 39.3342 34.1591 39.3342Z" fill="#37DD00"/>
<path d="M35.5272 14.4575C34.474 14.4575 33.3364 13.9256 32.3212 13.4522C31.8831 13.2489 31.4721 13.0567 31.1537 12.9509C30.77 12.8256 30.0842 12.7448 29.3575 12.6585L29.3031 12.653C27.8661 12.4831 26.2387 12.2909 25.4521 11.5641C24.9459 11.099 24.701 10.4836 24.7581 9.83194C24.8126 9.21371 25.1392 8.65953 25.6318 8.35042C26.3475 7.89649 27.6021 7.98561 29.7603 8.17776C30.2257 8.21953 30.7047 8.2613 31.1809 8.29472C32.4818 8.38662 34.0984 8.44232 35.0564 8.0413C35.3911 7.90206 35.7721 8.06637 35.9082 8.4089C36.0443 8.75143 35.8837 9.1413 35.549 9.28055C34.3488 9.78181 32.6206 9.73725 31.0884 9.62865C30.6012 9.59523 30.1141 9.55067 29.6433 9.5089C28.8187 9.4365 28.0403 9.36688 27.4116 9.35852C26.5979 9.35017 26.3666 9.45599 26.3149 9.48662C26.1761 9.57574 26.0754 9.75675 26.0563 9.95168C26.0427 10.1076 26.0781 10.3443 26.323 10.5699C26.7993 11.0099 28.3941 11.1993 29.45 11.3246L29.5045 11.3302C30.3318 11.4276 31.0449 11.5112 31.5483 11.6783C31.9402 11.8064 32.3866 12.0152 32.8601 12.2352C33.7745 12.6613 34.9121 13.1932 35.6959 13.1124C36.6784 13.0094 37.4268 12.4552 37.8731 12.1266L37.9439 12.0737C37.9983 12.0347 38.05 11.993 38.1045 11.9512C38.6052 11.5557 39.2012 11.294 39.8272 11.1854V6.67396C39.6231 6.68789 39.4244 6.69624 39.2312 6.69624C37.6119 6.69624 36.2838 6.21725 35.0836 5.78282C34.2671 5.48763 33.4969 5.20915 32.7322 5.12004C31.9021 5.02257 30.6067 5.25371 28.9847 5.78282C28.6417 5.89422 28.2743 5.70206 28.1628 5.34839C28.0539 4.99751 28.2417 4.62156 28.5873 4.50738C30.408 3.91143 31.8531 3.66915 32.8792 3.7889C33.7936 3.89472 34.6318 4.19827 35.519 4.51852C36.9587 5.03928 38.4474 5.57675 40.3797 5.26206C40.5674 5.23143 40.7607 5.28713 40.9076 5.41244C41.0519 5.54055 41.1362 5.72434 41.1362 5.92206V11.7924C41.1362 12.1628 40.845 12.4608 40.4831 12.4608C39.9088 12.4608 39.3482 12.653 38.9046 13.0038C38.842 13.054 38.7767 13.1041 38.7114 13.1514L38.6433 13.2016C38.1262 13.5831 37.1656 14.296 35.832 14.4352C35.7286 14.4519 35.6279 14.4575 35.5272 14.4575Z" fill="#37DD00"/>
<path d="M24.8041 20.5535C24.6898 20.5535 24.5755 20.5228 24.4721 20.4588L15.2026 14.8362C15.0529 14.7471 14.9468 14.5995 14.9032 14.4269C14.8597 14.2542 14.8869 14.0732 14.974 13.92L22.3248 1.23244C22.4119 1.07928 22.5562 0.970671 22.7249 0.926114C22.8936 0.881557 23.0705 0.909405 23.2202 0.998519L32.4897 6.62105C32.6394 6.71016 32.7455 6.85776 32.7891 7.03042C32.8326 7.20308 32.8054 7.38409 32.7183 7.53725L31.695 9.30282C31.5698 9.52004 31.3358 9.64535 31.0881 9.62865C30.601 9.59523 30.1138 9.55067 29.6457 9.5089C28.8211 9.43649 28.0427 9.36687 27.4141 9.35852C26.6003 9.35017 26.369 9.45599 26.3173 9.48662C26.1785 9.57574 26.0778 9.75675 26.0587 9.95168C26.0451 10.1076 26.0805 10.3443 26.3255 10.5699C26.8017 11.0099 28.3965 11.1993 29.4525 11.3246C29.6729 11.3497 29.8634 11.4889 29.9614 11.6922C30.0594 11.8955 30.0512 12.135 29.9369 12.3299L25.3675 20.2248C25.245 20.4365 25.0273 20.5535 24.8041 20.5535ZM16.43 14.0259L24.5755 18.9689L28.3067 12.5276C27.1718 12.3689 26.0587 12.1266 25.4518 11.5641C24.9456 11.099 24.7007 10.4836 24.7579 9.83194C24.8123 9.21371 25.1389 8.65953 25.6315 8.35042C26.3472 7.89649 27.6018 7.98561 29.76 8.17776C30.0948 8.20839 30.4377 8.23903 30.7806 8.26687L31.265 7.43143L23.1168 2.48839L16.43 14.0259Z" fill="#37DD00"/>
</g>
<defs>
<clipPath id="clip0_447_2166">
<rect width="43" height="44" fill="white" transform="translate(0.675781 0.291168)"/>
</clipPath>
</defs>
</svg>
