<svg width="86" height="88" viewBox="0 0 86 88" fill="none" xmlns="http://www.w3.org/2000/svg">
<path d="M28.652 55.3173L28.6318 33.7234C28.676 33.7196 28.4111 32.1776 29.4499 31.4296C30.5721 30.6216 41.4253 24.2947 41.4253 24.2947C41.4253 24.2947 42.8485 23.4171 44.0719 24.2283C45.2953 25.0395 56.1403 31.3695 56.1403 31.3695C56.1403 31.3695 56.918 31.8083 56.9585 33.0052C56.9983 34.202 56.9787 47.0689 56.9787 47.0689C56.9787 47.0689 57.138 48.0464 56.2604 48.685C55.3829 49.3235 43.7925 56.1854 43.7925 56.1854C43.7925 56.1854 43.1141 56.5641 41.6378 56.0659C40.1615 55.567 34.2569 51.7368 34.2569 51.7368V59.3574L41.9767 63.8659C41.9767 63.8659 42.9939 64.2649 43.9113 63.6864C44.8287 63.1079 62.3035 52.9343 62.3035 52.9343C62.3035 52.9343 63.5402 52.3558 63.5604 50.8795C63.5806 49.4032 63.5604 29.4949 63.5604 29.4949C63.5604 29.4949 63.6002 28.0388 62.6032 27.3402C61.6055 26.6422 43.7918 16.3087 43.7918 16.3087C43.7918 16.3087 42.9276 15.7568 41.9697 16.2221C41.0131 16.6874 23.0066 27.2997 23.0066 27.2997C23.0066 27.2997 22.0292 27.858 22.0089 28.8955C21.9887 29.9331 22.0089 51.1312 22.0089 51.1312C22.0089 51.1312 21.9957 52.0087 22.7272 52.5411L28.6419 56.0949L28.652 55.3173Z" fill="white"/>
<g filter="url(#filter0_d_298_1980)">
<path d="M41.9836 30.5451L35.1547 34.5814C35.1547 34.5814 34.217 35.0005 34.2373 36.217C34.2575 37.4334 34.2373 43.9633 34.2373 43.9633C34.2373 43.9633 34.2442 44.8143 34.9087 45.2929C35.5738 45.7716 41.9836 49.4557 41.9836 49.4557C41.9836 49.4557 42.5355 49.8812 43.3537 49.512C44.1718 49.1427 50.6151 45.3726 50.6151 45.3726C50.6151 45.3726 51.3864 45.0002 51.3864 43.883V36.0766C51.3864 36.0766 51.4528 35.3451 50.7744 34.8532C50.096 34.3613 43.5396 30.4913 43.5396 30.4913C43.5396 30.4913 42.6949 30.0323 41.9836 30.5444V30.5451Z" fill="white"/>
</g>
<path opacity="0.3" d="M50.7472 34.8539C50.7276 34.8387 50.7023 34.8216 50.672 34.8014C49.6876 34.1363 43.5124 30.4913 43.5124 30.4913C43.5124 30.4913 42.6677 30.0323 41.9564 30.5444L35.1275 34.5807C35.1275 34.5807 34.9485 34.661 34.7481 34.8526C34.7045 34.8943 34.6602 34.9411 34.6166 34.9936C34.6166 34.9936 34.1873 35.5019 34.9251 35.9439C35.663 36.3858 42.8118 40.9039 42.8118 40.9039C42.8118 40.9039 50.6941 35.9439 50.9736 35.7175C50.9736 35.7175 51.4174 35.3786 50.7466 34.8532L50.7472 34.8539Z" fill="#A4A4A4"/>
<path opacity="0.3" d="M22.4179 28.1451L28.9586 31.6661L41.5207 24.2346C41.5207 24.2346 43.0375 23.242 44.5505 24.4667C46.2987 25.5206 56.2332 31.4334 56.2332 31.4334L63.0122 27.7303C63.0122 27.7303 62.8219 27.4661 62.5886 27.3175C62.3553 27.1689 43.922 16.3226 43.922 16.3226C43.922 16.3226 42.997 15.6961 42.0183 16.1892C41.0718 16.7172 22.8599 27.3997 22.8599 27.3997C22.8599 27.3997 22.1612 27.9434 22.4179 28.1451Z" fill="#A4A4A4"/>
<defs>
<filter id="filter0_d_298_1980" x="0.236938" y="0.3022" width="85.1512" height="87.3604" filterUnits="userSpaceOnUse" color-interpolation-filters="sRGB">
<feFlood flood-opacity="0" result="BackgroundImageFix"/>
<feColorMatrix in="SourceAlpha" type="matrix" values="0 0 0 0 0 0 0 0 0 0 0 0 0 0 0 0 0 0 127 0" result="hardAlpha"/>
<feOffset dy="4"/>
<feGaussianBlur stdDeviation="17"/>
<feComposite in2="hardAlpha" operator="out"/>
<feColorMatrix type="matrix" values="0 0 0 0 0.215686 0 0 0 0 0.866667 0 0 0 0 0 0 0 0 0.7 0"/>
<feBlend mode="normal" in2="BackgroundImageFix" result="effect1_dropShadow_298_1980"/>
<feBlend mode="normal" in="SourceGraphic" in2="effect1_dropShadow_298_1980" result="shape"/>
</filter>
</defs>
</svg>
