<svg width="86" height="88" viewBox="0 0 86 88" fill="none" xmlns="http://www.w3.org/2000/svg">
<path d="M29.0825 55.3173L29.0623 33.7234C29.1066 33.7196 28.8416 32.1776 29.8804 31.4296C31.0027 30.6216 41.8559 24.2947 41.8559 24.2947C41.8559 24.2947 43.2791 23.4171 44.5025 24.2283C45.7259 25.0394 56.5709 31.3695 56.5709 31.3695C56.5709 31.3695 57.3485 31.8083 57.389 33.0052C57.4288 34.202 57.4092 47.0689 57.4092 47.0689C57.4092 47.0689 57.5686 48.0464 56.691 48.685C55.8134 49.3235 44.223 56.1854 44.223 56.1854C44.223 56.1854 43.5446 56.5641 42.0683 56.0659C40.592 55.567 34.6874 51.7368 34.6874 51.7368V59.3574L42.4072 63.8659C42.4072 63.8659 43.4245 64.2649 44.3419 63.6864C45.2593 63.1079 62.734 52.9343 62.734 52.9343C62.734 52.9343 63.9707 52.3558 63.991 50.8795C64.0112 49.4032 63.991 29.4949 63.991 29.4949C63.991 29.4949 64.0308 28.0388 63.0337 27.3402C62.036 26.6422 44.2224 16.3087 44.2224 16.3087C44.2224 16.3087 43.3581 15.7568 42.4002 16.2221C41.4436 16.6874 23.4372 27.2997 23.4372 27.2997C23.4372 27.2997 22.4597 27.858 22.4395 28.8955C22.4192 29.9331 22.4395 51.1311 22.4395 51.1311C22.4395 51.1311 22.4262 52.0087 23.1577 52.5411L29.0724 56.0949L29.0825 55.3173Z" fill="white"/>
<g filter="url(#filter0_d_55_267)">
<path d="M42.4141 30.5451L35.5852 34.5814C35.5852 34.5814 34.6476 35.0005 34.6678 36.217C34.688 37.4334 34.6678 43.9633 34.6678 43.9633C34.6678 43.9633 34.6748 44.8143 35.3393 45.2929C36.0044 45.7716 42.4141 49.4557 42.4141 49.4557C42.4141 49.4557 42.9661 49.8812 43.7842 49.5119C44.6023 49.1427 51.0456 45.3726 51.0456 45.3726C51.0456 45.3726 51.817 45.0002 51.817 43.883V36.0766C51.817 36.0766 51.8833 35.3451 51.2049 34.8532C50.5265 34.3613 43.9701 30.4913 43.9701 30.4913C43.9701 30.4913 43.1254 30.0323 42.4141 30.5444V30.5451Z" fill="white"/>
</g>
<path opacity="0.3" d="M51.1777 34.8539C51.1581 34.8387 51.1329 34.8216 51.1025 34.8014C50.1181 34.1363 43.9429 30.4913 43.9429 30.4913C43.9429 30.4913 43.0982 30.0323 42.3869 30.5444L35.558 34.5807C35.558 34.5807 35.3791 34.661 35.1787 34.8526C35.135 34.8943 35.0908 34.9411 35.0471 34.9936C35.0471 34.9936 34.6179 35.5019 35.3557 35.9439C36.0935 36.3858 43.2424 40.9039 43.2424 40.9039C43.2424 40.9039 51.1246 35.9439 51.4041 35.7175C51.4041 35.7175 51.8479 35.3786 51.1771 34.8532L51.1777 34.8539Z" fill="#A4A4A4"/>
<path opacity="0.3" d="M22.8485 28.1451L29.3891 31.6661L41.9513 24.2346C41.9513 24.2346 43.4681 23.242 44.981 24.4667C46.7292 25.5206 56.6637 31.4334 56.6637 31.4334L63.4427 27.7303C63.4427 27.7303 63.2524 27.466 63.0191 27.3175C62.7858 27.1689 44.3526 16.3226 44.3526 16.3226C44.3526 16.3226 43.4276 15.6961 42.4489 16.1892C41.5024 16.7172 23.2904 27.3997 23.2904 27.3997C23.2904 27.3997 22.5918 27.9434 22.8485 28.1451Z" fill="#A4A4A4"/>
<defs>
<filter id="filter0_d_55_267" x="0.66748" y="0.302193" width="85.1512" height="87.3604" filterUnits="userSpaceOnUse" color-interpolation-filters="sRGB">
<feFlood flood-opacity="0" result="BackgroundImageFix"/>
<feColorMatrix in="SourceAlpha" type="matrix" values="0 0 0 0 0 0 0 0 0 0 0 0 0 0 0 0 0 0 127 0" result="hardAlpha"/>
<feOffset dy="4"/>
<feGaussianBlur stdDeviation="17"/>
<feComposite in2="hardAlpha" operator="out"/>
<feColorMatrix type="matrix" values="0 0 0 0 0.215686 0 0 0 0 0.866667 0 0 0 0 0 0 0 0 0.7 0"/>
<feBlend mode="normal" in2="BackgroundImageFix" result="effect1_dropShadow_55_267"/>
<feBlend mode="normal" in="SourceGraphic" in2="effect1_dropShadow_55_267" result="shape"/>
</filter>
</defs>
</svg>
