<svg width="32" height="24" viewBox="0 0 32 24" fill="none" xmlns="http://www.w3.org/2000/svg">
<path d="M31.0058 4.43848C30.6408 3.07581 29.5792 1.99564 28.219 1.63004C25.7641 0.965322 15.9194 0.965332 15.9194 0.965332C15.9194 0.965332 6.07462 0.965322 3.61966 1.63004C2.26778 1.99564 1.19788 3.0675 0.832951 4.43848C0.177741 6.91455 0.177734 12.0827 0.177734 12.0827C0.177734 12.0827 0.177741 17.2509 0.832951 19.727C1.19788 21.0897 2.25948 22.1698 3.61966 22.5354C6.07462 23.2002 15.9194 23.2002 15.9194 23.2002C15.9194 23.2002 25.7641 23.2002 28.219 22.5354C29.5709 22.1698 30.6408 21.098 31.0058 19.727C31.661 17.2509 31.661 12.0827 31.661 12.0827C31.661 12.0827 31.661 6.91455 31.0058 4.43848Z" fill="#222221"/>
<path d="M12.7012 16.769V7.38818L20.9286 12.0744L12.7012 16.769Z" fill="white"/>
</svg>
